<?xml version="1.0" encoding="utf-8"?>
<!-- Generator: Adobe Illustrator 16.0.0, SVG Export Plug-In . SVG Version: 6.00 Build 0)  -->
<!DOCTYPE svg PUBLIC "-//W3C//DTD SVG 1.1//EN" "http://www.w3.org/Graphics/SVG/1.1/DTD/svg11.dtd">
<svg version="1.1" xmlns="http://www.w3.org/2000/svg" xmlns:xlink="http://www.w3.org/1999/xlink" x="0px" y="0px"
	 width="554.188px" height="259.104px" viewBox="0 0 554.188 259.104" enable-background="new 0 0 554.188 259.104"
	 xml:space="preserve">
<g>
	<path fill="#FFFFFF" d="M552.596,134.343c0,0,9.642-118.713-58.771-132.796C425.417-12.538,335.84,73.982,253.865,82.03
		S10.352,93.097,0.866,149.434c-9.485,56.337,60.362,87.526,136.824,67.402c76.458-20.119,114.688-72.435,162.974-58.349
		c48.291,14.083,80.485,38.799,138.834,0C467.383,139.946,540.104,192.693,552.596,134.343z"/>
	<path fill="#E6EFFA" d="M438.498,140.714c-58.352,38.798-89.539-6.371-137.826-20.456c-31.618-9.221-49.975,28.255-86.523,48.29
		c-19.273,10.564-50.061,3.114-76.458,10.061c-28.3,7.446-64.231,26.917-87.024,21.629c-26.892-6.235-53.825-35.209-46.902-59.394
		c-1.351,2.727-2.383,5.563-2.893,8.591c-9.486,56.337,60.361,87.526,136.819,67.402c76.462-20.119,114.688-72.435,162.981-58.349
		c48.287,14.083,80.48,38.799,138.831,0c27.886-18.542,100.603,34.205,113.096-24.145c0,0,1.269-15.838-0.425-36.604
		C555.198,149.099,466.111,122.357,438.498,140.714z"/>
	<path fill="#CBE0FA" d="M4.43,179.179c0,0,9.178,27.596,15.885,30.95c6.707,3.357,12.074,0.862,14.082,12.839
		c2.017,11.979,2.682,36.795,8.051,36.123c5.37-0.671-1.336-36.889,10.732-32.865c12.074,4.026,6.037,14.752,12.074,14.085
		c6.037-0.668-0.672-21.945,8.049-17.343c8.723,4.602,15.424,12.651,35.544,7.954c20.118-4.696,34.206-18.104,62.374-17.437
		c28.17,0.669,22.803-20.121,38.23-18.781c15.43,1.34,33.531-30.853,48.289-24.142c14.758,6.705,4.023-13.706,24.815-10.208
		c20.794,3.497,40.913,29.656,95.239,24.962c0,0,11.402-1.68,14.422,4.356c3.017,6.038,4.356,14.082,14.081,11.402
		c9.729-2.681,1.005-21.456,11.399-22.799c10.402-1.348,8.725,5.695,12.411,2.345c3.689-3.354,4.695-18.443,14.421-18.443
		c9.727,0,20.369,13.161,40.238,7.88c19.875-5.284,27.162-2.517,32.699,3.772c5.533,6.288,8.3,2.767,10.564,7.544
		c2.262,4.778-3.52,17.102,5.281,18.109c8.804,1.006-0.252-20.622,4.275-26.408c4.528-5.784,7.547-1.509,8.549-9.053
		c1.012-7.547,8.051-14.588,8.051-22.636c0-8.049-1.299-12.561-1.299-12.561s-11.275,23.123-28.377,19.853
		c-17.106-3.271-26.16-3.774-42.256,2.516c-16.096,6.288-36.721-8.299-51.811,6.54c-15.091,14.836-56.666,24.061-76.454,13.33
		c-19.79-10.734-27.838-25.486-49.97-19.448c-22.133,6.036-15.59-2.013-26.492-1.007c-10.899,1.007-12.076,9.978-21.005,9.747
		c-8.925-0.233-32.983,21.44-42.712,19.26c-9.727-2.182-9.727,1.758-16.896,9.807c-7.166,8.049-14.587,4.653-39.23,3.146
		c-24.65-1.51-44.98,33.154-56.885,27.791c-11.898-5.365-22.637-14.089-34.371-4.697c-11.737,9.393-12.07-5.196-22.301-5.362
		c-10.229-0.171-9.684-13.205-20.5-14.589C12.816,194.328,4.43,179.179,4.43,179.179z"/>
</g>
</svg>
