<?xml version="1.0" encoding="utf-8"?>
<!-- Generator: Adobe Illustrator 16.0.0, SVG Export Plug-In . SVG Version: 6.00 Build 0)  -->
<!DOCTYPE svg PUBLIC "-//W3C//DTD SVG 1.1//EN" "http://www.w3.org/Graphics/SVG/1.1/DTD/svg11.dtd">
<svg version="1.1" xmlns="http://www.w3.org/2000/svg" xmlns:xlink="http://www.w3.org/1999/xlink" x="0px" y="0px"
	 width="785.056px" height="446.309px" viewBox="0 0 785.056 446.309" enable-background="new 0 0 785.056 446.309"
	 xml:space="preserve">
<g>
	<g>
		<path fill="#FFFFFF" d="M7.173,292.442c-2.359-24.104,0.895-32.335,6.698-55.764c7.334-29.618-17.969-40.315-13.289-68.163
			c3.62-21.585,8.832-12.977,23.296-28.803c7.372-8.057,7.607-19.218,11.48-28.731c4.317-10.613,15.016-17.379,18.445-28.345
			c3.552-11.366-4.617-26.693,6.306-35.223c11.812-9.217,30.997-12.333,45.509-10.578c15.803,1.913,32.889,5.914,49.355,2.708
			c34.737-6.771,40.882-42.322,80.236-39.371c27.446,2.06,50.458,16.218,73.317,31.055c17.578,11.406,49.97,48.129,68.673,48.767
			c14.738,0.502,22.669-16.144,39.823-13.542c11.499,1.74,20.674,9.642,33.567,11.238c31.69,3.94,39.139-17.321,66.165-19.936
			c25.599-2.473,42.083,17.063,63.879,26.538c28.333,12.312,36.018-0.664,62.267-6.595c24.532-5.539,49.036,4.545,68.168,18.261
			c22.756,16.32,38.388,15.298,64.384,21.93c27.556,3.781-12.949,21.823-12.949,21.823c-26.601,7.248-34.323,34.708-59.753,39.876
			c-29.348,5.964-48.874-2.431-75.47,14.945c-15.218,9.947-10.77,12.85-32.563,13.847c-13.223,0.61-25.817-0.194-38.169,3.901
			c-27.025,8.965-41,34.952-73.086,26.176c-11.163-3.045-21.148-12.272-33.278-14.562c-8.959-1.688-19.629,0.083-28.798-0.007
			c-24.854-0.233-45.19-9.204-68.782-13.174c-21.733-3.669-39.464,1.051-60.247,4.367c-24.845,3.961-52.644-3.338-77.591,2.229
			c-16.367,3.645-46.516,21.186-58.743,31.682c-16.42,14.088-11.174,40.202-22.981,56.896
			c-15.277,21.612-41.426,13.593-40.027,43.083c0.914,19.288,2.711,37.983,2.756,58.77c0.157,72.148-42.741,28.442-58.147-12.805
			c-3.44-9.22-4.366-21.839-9.971-29.949c-4.753-6.894-14.805-4.93-18.919-12.026C0.585,338.895,8.778,308.918,7.173,292.442z"/>
		<path fill="#E6EFFA" d="M781.877,128.099c-0.054,0.007-0.116,0.023-0.168,0.032c-12.113,1.432-24.693-1.074-36.849,0
			c-15.202,1.336-19.402,8.822-30.663,17.892c-14.748,11.869-21.168,5.927-37.192,5.155c-27.764-1.344-50.183-0.802-72.981,15.02
			c-13.301,9.227-22.745,21.307-40.624,18.612c-13.282-2.003-23.896-7.996-37.763-9.309c-13.261-1.252-36.319-5.717-49.422-1.275
			c-12.4,4.2-11.771,20.42-28.365,21.762c-13.208,1.074-24.028-6.353-38.63-6.397c-8.264-0.03-14.459,3.647-22.077,3.834
			c-10.276,0.247-17.269-5.687-26.107-9.926c-12.586-6.04-25.866-7.757-39.875-5.815c-7.877,1.096-15.496,3.416-23.812,4.224
			c-12.566,1.215-9.996,0.96-18.825-4.876c-25.314-16.714-58.797-13.616-87.745-19.198c-26.611-5.124-38.271,25.83-63.046,30.475
			c-24.202,4.538-50.904,5.198-51.407-24.203c-10.517-1.073-24.133,15.709-32.843,8.575c-8.544-6.998,0.041-22.265,3.306-28.262
			c2.682-4.922,7.06-8.828,6.712-15.011c-0.4-7.119-6.635-9.167-7.802-15.298c-1.042-5.475,5.708-11.844,3.674-18.979
			c-0.273-0.967-0.601-1.821-0.962-2.628c-4.502,6.032-10.182,11.412-13.054,18.481c-3.873,9.513-4.108,20.674-11.48,28.731
			C9.414,155.538,4.202,146.93,0.582,168.515c-4.68,27.848,20.623,38.545,13.289,68.163c-5.803,23.429-9.058,31.661-6.698,55.764
			c1.605,16.476-6.588,46.453,1.56,60.518c4.114,7.097,14.166,5.133,18.919,12.026c5.605,8.109,6.531,20.729,9.971,29.949
			c15.406,41.247,58.304,84.953,58.147,12.805c-0.045-20.787-1.842-39.482-2.756-58.77c-1.399-29.491,24.75-21.471,40.027-43.083
			c11.807-16.694,6.562-42.808,22.981-56.896c12.227-10.496,42.375-28.037,58.743-31.682c24.947-5.567,52.746,1.732,77.591-2.229
			c20.783-3.315,38.514-8.036,60.247-4.367c23.592,3.97,43.928,12.941,68.782,13.174c9.168,0.09,19.838-1.681,28.798,0.007
			c12.13,2.29,22.115,11.517,33.278,14.562c4.495,1.231,8.603,1.717,12.472,1.726v40.399c0,2.392,1.938,4.328,4.33,4.328
			c2.389,0,4.327-1.936,4.327-4.328v-41.247c2.664-0.57,5.19-1.426,7.656-2.431v19.723c0,2.393,1.938,4.329,4.328,4.329
			c2.392,0,4.327-1.936,4.327-4.329v-24.037c3.384-1.973,6.708-4.164,10.061-6.406v110.196c0,2.393,1.936,4.329,4.329,4.329
			c2.392,0,4.329-1.936,4.329-4.329V220.549c5.208-3.231,10.717-6.203,16.928-8.267c12.352-4.095,24.946-3.292,38.169-3.901
			c21.793-0.998,17.345-3.9,32.563-13.847c18.059-11.8,32.866-11.719,49.698-12.311v20.345c0,2.393,1.939,4.328,4.329,4.328
			s4.329-1.936,4.329-4.328v-20.78c2.062-0.136,4.147-0.302,6.297-0.532v70.9c0,2.395,1.939,4.33,4.33,4.33
			c2.391,0,4.331-1.935,4.331-4.33v-72.185c0.723-0.136,1.423-0.231,2.157-0.382c2.317-0.474,4.45-1.186,6.501-1.995V297.16
			c0,2.394,1.936,4.33,4.329,4.33c2.389,0,4.327-1.937,4.327-4.33V172.964c3.808-2.604,7.27-5.68,10.631-8.94v32.331
			c0,2.395,1.937,4.331,4.328,4.331c2.39,0,4.331-1.937,4.331-4.331v-40.838c6.971-6.688,14.607-12.884,25.306-15.804
			C762.503,139.712,775.668,133.847,781.877,128.099z"/>
	</g>
</g>
</svg>
