<?xml version="1.0" encoding="utf-8"?>
<!-- Generator: Adobe Illustrator 16.0.0, SVG Export Plug-In . SVG Version: 6.00 Build 0)  -->
<!DOCTYPE svg PUBLIC "-//W3C//DTD SVG 1.1//EN" "http://www.w3.org/Graphics/SVG/1.1/DTD/svg11.dtd">
<svg version="1.1" xmlns="http://www.w3.org/2000/svg" xmlns:xlink="http://www.w3.org/1999/xlink" x="0px" y="0px"
	 width="1070.317px" height="297.11px" viewBox="0 0 1070.317 297.11" enable-background="new 0 0 1070.317 297.11"
	 xml:space="preserve">
<g>
	<path fill="#E6EFFA" d="M1040.796,154.38c-24.954,14.327-55.732-4.306-109.986,59.679
		c-71.104,83.823-195.166,12.072-325.953-30.183c-130.783-42.251-233.398-6.036-348.085,34.207
		C149.332,255.779,29.532,252.866,4.89,192.803c-1.658-4.053-2.891-8.369-3.656-12.95c-2.979-17.909-0.361-29.295,5.678-37.062
		c18.387-23.741,68.207-14.607,86.879-57.504c29.415-67.605,70.426-26.842,130.787-50.303c209.977-81.649,154.928,6.036,309.858,0
		C689.366,28.95,695.4,97.358,798.013,81.261c102.618-16.096,187.127-42.252,237.431-8.047c7.365,4.99,13.721,10.745,18.712,16.941
		C1070.975,110.919,1071.981,136.473,1040.796,154.38z"/>
	<path fill="#FFFFFF" d="M1054.155,90.155c2.169,2.836,6.769,14.245,2.748,23.969c-10.19,24.617-44.307-1.079-73.438,25.487
		c-11.399,10.398-38.984,4-52.655,20.122c-42.848,50.518-109.623,74.221-182.425,59.936c-47.989-9.421-47.618-36.124-149.062-63.457
		c-36.574-9.852-38.225-36.72-97.713-37.652c-51.68-0.81-99.979,21.617-147.76,35.138c-32.682,9.248-44.766-8.552-97.079,10.06
		c-56.692,20.169-105.7-40.592-148.894-19.452c-63.047,30.854-87.912,24.081-100.967-1.514
		c18.387-23.741,68.207-14.607,86.879-57.504c29.415-67.605,70.426-26.842,130.787-50.303c209.977-81.649,154.928,6.036,309.858,0
		C689.366,28.95,695.4,97.358,798.013,81.261c102.618-16.096,187.127-42.252,237.431-8.047
		C1042.809,78.204,1049.164,83.958,1054.155,90.155z"/>
	<path fill="#E6EFFA" d="M2.247,184.691c0,0,5.023,40.938,30.176,48.481c25.154,7.546,37.727,4.528,46.779,15.093
		c9.057,10.562,9.558,21.627,34.706,18.609c25.155-3.017,17.106-21.127,34.708-21.127c17.611,0,19.117,14.086,15.6,19.62
		c-3.523,5.534-13.03,23.138,1.531,27.161c14.563,4.026,31.666,2.515,25.125-22.636c-6.539-25.149,5.531-32.191,12.074-26.659
		c6.538,5.534-4.523,28.17,18.613,24.647c23.135-3.52-0.508-21.125,7.04-30.18c7.548-9.057,8.554-12.801,26.16-8.16
		c17.601,4.638,32.858,7.386,50.972-13.47c18.111-20.858,46.946-28.168,59.02-27.498c12.074,0.668,1.342,14.754,7.379,22.803
		c6.033,8.048,16.768-2.014,10.734-12.072c-6.039-10.063-2.012-22.133,12.069-20.122c14.083,2.011,32.862,13.413,63.04-3.353
		c30.188-16.769,56.339-4.025,69.418,0c13.078,4.023,14.637,3.543,28.674,1.004c14.035-2.535,18.612-0.503,23.639,13.08
		c5.032,13.581,9.057,20.622,31.689,18.109c22.643-2.517,29.681-8.553,42.254,1.508c12.58,10.06,10.234,15.259,42.428,17.941
		c32.189,2.683,36.885,9.726,39.902,27.163c3.021,17.439-1.672,39.572,7.715,42.254c9.389,2.681,0.33-19.786,4.692-29.176
		c4.364-9.389,9.706-9.495,13.078-18.78c3.38-9.287,20.124-4.692,26.496,9.727c6.374,14.42,54.858,23.79,90.542-2.347
		c35.69-26.138,24.484-4.695,44.268-14.754c19.782-10.063,0.334-22.808,15.424-28.508c15.093-5.699,31.527-36.887,40.912-26.827
		c9.393,10.063,6.373,11.739,15.425,13.75c9.056,2.014,6.372,12.409,7.044,18.445c0.67,6.037-3.355,27.497,8.721,23.473
		c12.073-4.025-6.709-32.194,5.365-51.978c12.07-19.786,27.498-18.443,32.866-28.839c5.361-10.397,21.792-11.739,21.792-25.823
		s-5.266-23.366-5.266-23.366s-0.765,11.629-12.502,20.683c-11.742,9.056-20.129,23.808-43.604,23.808
		c-23.469,0-29.17-1.006-41.58,13.416c-12.404,14.421-27.493,27.833-39.568,28.84c-12.074,1.005-19.652,14.739-19.453,27.832
		c0.261,17.004-8.615,7.4-25.82,11.066c-20.455,4.36-18.779,17.441-56.672,6.374c-37.896-11.065-56.824-11.623-65.06-10.06
		c-19.448,3.686-29.175-4.947-49.801-21.297c-20.618-16.348-100.351-21.628-121.476-35.965
		c-21.127-14.336-20.124-21.126-33.451-15.593c-13.33,5.534-14.086,6.791-21.63-0.755c-7.544-7.543-40.996-29.173-76.462-10.312
		c-35.459,18.864-50.805,23.641-69.414,18.612c-18.611-5.031-21.881,6.54-29.676,8.048c-7.799,1.51-17.355,10.312-31.943,6.289
		c-14.588-4.024-32.698-3.772-52.568,18.36c-19.869,22.134-30.683,14.839-40.744,11.82c-10.057-3.018-32.193,12.746-48.287,17.441
		c-16.1,4.691-18.104,3.352-32.531-9.391c-14.42-12.743-25.819,22.466-46.609,14.753c-20.794-7.712-28.504-32.193-55.669-35.212
		C23.365,197.626,13.313,201.125,2.247,184.691z"/>
</g>
</svg>
