<?xml version="1.0" encoding="utf-8"?>
<!-- Generator: Adobe Illustrator 16.0.0, SVG Export Plug-In . SVG Version: 6.00 Build 0)  -->
<!DOCTYPE svg PUBLIC "-//W3C//DTD SVG 1.1//EN" "http://www.w3.org/Graphics/SVG/1.1/DTD/svg11.dtd">
<svg version="1.1" xmlns="http://www.w3.org/2000/svg" xmlns:xlink="http://www.w3.org/1999/xlink" x="0px" y="0px"
	 width="930.758px" height="232.732px" viewBox="0 0 930.758 232.732" enable-background="new 0 0 930.758 232.732"
	 xml:space="preserve">
<g>
	<g>
		<path fill="#FFFFFF" d="M893.575,2.667c-26.955,7.329-53.124,39.659-77.426,51.706c-32.084,15.916-68.47,0.374-103.664,10.04
			c-33.917,9.312-40.46,45.365-89.229,27.971c-23.524-8.389-43.769-31.786-69.566-31.933c-9.508-0.052-62.979,14.501-69.339,16.276
			c-14.933,4.165-29.743,11.982-45.544,8.901c-9.292-1.811-16.375-9.855-24.192-14.941c-5.575-3.621-15.461-8.51-21.886-5.01
			c-2.047,1.112-3.872,3.403-6.175,4.605c-7.463,3.89-11.609,9.862-17.433,15.774c-5.644,5.733-13.086,6.77-20.558,6.315
			c-13.874-0.85-16.982-8.839-26.582-15.993c-25.365-18.887-23.148-32.714-58.052-21.221c-27.621,9.096-41.918,25.6-77.666,15.809
			c-3.389-0.93-18.305-13.14-24.67-15.567c-14.102-5.392-42.517-9.381-58.262-6.32c-14.32,2.782-19.376,12.111-32.322,16.166
			c-10,3.129-27.443,4.667-37.059,5.489c-74.212,6.331-3.619,37.006-3.619,37.006c15.246,9.604,28.214,20.925,36.977,34.533
			c17.319,26.885,13.654,54.13,56.679,42.726c38.165-10.108,40.049-43.058,80.314-46.425c51.845-4.336,56.83,35.857,96.729,46.312
			c38.009,9.961,72.131-18.333,108.263-15.475c42.19,3.337,42.33,38.759,76.61,51.804c31.87,12.126,81.208-12.205,108.653-21.737
			c34.959-12.143,71.944-12.435,107.021-21.575c64.27-16.744,52.921,5.369,93.11,37.917c71.556,57.956,89.835-48.85,108.104-83.57
			c9.299-17.673,10.473-16.823,11.817-37.007c0.953-14.374,1.985-22.344,7.13-36.842C929.668,36.09,946.724-11.773,893.575,2.667z"
			/>
		<path fill="#E6EFFA" d="M701.574,177.904c64.27-16.744,52.921,5.369,93.11,37.917c71.556,57.956,89.835-48.85,108.104-83.57
			c9.299-17.673,10.473-16.823,11.817-37.007c0.716-10.697,1.466-17.853,3.931-26.789c-8.32,6.824-15.238,15.839-23.703,24.077
			c-13.656,13.269-29.367,16.968-44.551,27.661c-14.721,10.362-26.765,27.522-44.666,31.834
			c-38.749,9.329-63.677-35.362-101.35-12.837c-22.479,13.448-31.086,19.388-56.776,11.07
			c-18.372-5.948-37.352-19.995-58.209-15.369c-23.283,5.167-33.898,23.861-59.383,25.579c-24.444,1.65-34.378-5.799-54.142-16.403
			c-17.818-9.557-24.617,7.517-42.289-0.588c-8.478-3.885-13.759-15.327-22.362-18.667c-7.819-3.034-19.516,0.252-27,1.113
			c-19.195,2.197-33.355,13.462-52.636,15.439c-26.861,2.754-36.912-5.799-57.438-17.559c-18.417-10.548-33.256-0.264-53.25-5.682
			c-16.152-4.381-25.291-23.229-42.831-25.742c-20.783-2.981-31.624,13.699-49.445,18.783C103.634,118.255,98.794,91.845,76.7,88.78
			c-17.599-2.446-32.856,7.555-50.13-0.978c-9.044-4.465-15.944-8.251-22.75-10.017c-16.632,11.206,26.51,29.957,26.51,29.957
			c15.246,9.604,28.214,20.925,36.977,34.533c17.319,26.885,13.654,54.13,56.679,42.726c38.165-10.108,40.049-43.058,80.314-46.425
			c51.845-4.336,56.83,35.857,96.729,46.312c38.009,9.961,72.131-18.333,108.263-15.475c42.19,3.337,42.33,38.759,76.61,51.804
			c31.87,12.126,81.208-12.205,108.653-21.737C629.513,187.337,666.497,187.044,701.574,177.904z"/>
	</g>
</g>
</svg>
