<?xml version="1.0" encoding="utf-8"?>
<!-- Generator: Adobe Illustrator 16.0.0, SVG Export Plug-In . SVG Version: 6.00 Build 0)  -->
<!DOCTYPE svg PUBLIC "-//W3C//DTD SVG 1.1//EN" "http://www.w3.org/Graphics/SVG/1.1/DTD/svg11.dtd">
<svg version="1.1" xmlns="http://www.w3.org/2000/svg" xmlns:xlink="http://www.w3.org/1999/xlink" x="0px" y="0px"
	 width="823.876px" height="318.664px" viewBox="0 0 823.876 318.664" enable-background="new 0 0 823.876 318.664"
	 xml:space="preserve">
<g>
	<path fill="#FFFFFF" d="M33.784,169.654c0,0-8.045-122.739,72.438-160.969c80.482-38.229,256.156,62.376,403.734,58.35
		c147.573-4.024,290.431-41.247,311.812,30.182c11.067,36.972-21.46,62.375-96.872,40.243
		c-75.416-22.135-155.705,14.085-202.08,44.265c-46.372,30.183-157.035,60.364-211.363,20.123
		c-54.324-40.243-111.782,58.301-205.23,62.374C2.673,268.725-32.61,209.896,33.784,169.654z"/>
	<path fill="#E6EFFA" d="M724.901,137.46c-75.416-22.132-155.698,14.085-202.095,44.265
		c-46.354,30.183-157.022,60.364-211.347,20.123c-54.326-40.243-111.79,58.31-205.229,62.374
		c-82.219,3.582-121.41-32.761-100.807-68.049c-5.416,18.056,18.263,35.069,45.969,40.885c40.742,8.551,21.627-19.617,54.324-22.635
		c73.419-6.783,56.886-20.475,84.004-36.682c43.553-26.024,88.257-36.916,121.738-12.112
		c30.923,22.903,83.085,36.902,128.264,27.164c34.191-7.374,63.115-34.287,83.083-47.284c27.628-17.974,72.013-33.633,116.282-31.19
		c54.659,3.02,55.307-22.028,85.813-13.076c14.467,4.247,35.038,16.084,45.641,20.119c37.896,14.419,51.641-11.736,48.924-30.34
		c0.886,1.971,1.651,4.024,2.291,6.198C832.826,134.2,800.312,159.591,724.901,137.46z"/>
	<path fill="#E6EFFA" d="M4.89,231.588c0,0,3.746,30.605,16.821,32.878c13.079,2.27,6.042-9.819,19.622,0
		c13.582,9.815,3.52,20.378,13.582,26.414c10.059,6.036,2.007-16.599,12.069-17.606c10.062-1.006,25.151-16.599,27.165,8.553
		c2.01,25.149,4.021,38.229,17.102,36.719c13.08-1.509-11.567-39.558,4.527-43.424c16.1-3.859,29.676,16.247,55.332-10.656
		c25.655-26.905,29.681-36.337,56.844-32.878c27.162,3.457,20.118-7.106,33.699-21.191c13.582-14.084,33.702-19.616,38.232,0
		c4.523,19.619,20.625,25.654,31.186,18.11c10.563-7.545,21.628-4.025,25.655-0.504c4.021,3.523,10.06,8.553,20.621,5.534
		c10.563-3.02,22.638-12.575,46.782-7.041c24.143,5.533,36.219,0.5,50.806-13.081c14.587-13.581,34.457-25.15,51.813-21.881
		c17.352,3.271,15.589-8.803,16.345-15.843c0.754-7.043,8.049-9.559,9.056-3.773c1.005,5.783,5.278,9.141,9.807,5.824
		c4.531-3.31,1.763-19.656,11.571-20.663c9.807-1.007,7.797,4.527,13.578,2.263c5.782-2.263,4.782-12.575,15.094-13.078
		c10.307-0.505,25.151,8.298,47.623-2.098c22.464-10.399,25.82-13.754,38.56-7.38c12.741,6.372,14.421,8.386,30.519,6.372
		c16.094-2.01,27.492,7.544,28.839,12.914c1.345,5.361,0,10.894,3.355,12.577c3.354,1.674,3.683,2.932,4.021,9.093
		c0.34,6.162,1.01,11.86,4.864,10.02c3.855-1.845-1.512-17.438,0.839-21.299c2.346-3.85,7.547-5.194,7.715-10.563
		c0.168-5.36,5.027-8.212,8.211-5.031c3.186,3.191-0.666,12.751,4.025,14.422c4.697,1.675,2.85-11.741,4.195-13.918
		c1.336-2.178,8.883-6.878,10.897,2.515c2.013,9.393-3.854,12.409,0.837,16.435c4.695,4.022,11.739,1.343,11.068-6.539
		c-0.671-7.885-4.19-10.225-2.18-16.098c2.014-5.872,8.882-10.398,12.908-18.275c4.023-7.881-9.555,10.894-15.595,11.067
		c-6.033,0.165-11.57-5.869-26.823-3.018c-15.26,2.845-17.943,11.231-27.502,2.012c-9.557-9.225-18.439-14.251-36.048-9.893
		c-17.604,4.358-13.754-6.203-21.462-4.024c-7.715,2.179-8.215,2.256-19.618-0.298c-11.403-2.555-13.075-0.711-23.81,5.997
		c-10.732,6.71-11.404-4.523-41.749-1.674c-30.349,2.849-17.442,19.952-29.851,21.123c-12.406,1.183-15.26-1.507-17.438,6.376
		c-2.175,7.881-8.718,5.705-10.56,4.362c-1.847-1.344-13.914-2.852-28.502,11.231c-14.592,14.086-10.227,9.053-18.275,9.723
		c-8.053,0.676-8.389,3.019-10.734,7.215c-2.348,4.189-4.359,9.219-11.234,10.563c-6.875,1.338-18.275-4.699-47.45,11.9
		c-29.177,16.599-28.675-0.338-36.89-0.669c-8.217-0.338-9.561,10.059-21.467,8.049c-11.904-2.012-7.037-6.374-12.74-5.03
		c-5.697,1.335-30.683,2.68-37.725-9.56c-7.043-12.245-5.195-17.603-16.764-16.599c-11.574,1.007-12.912,2.342-16.601-2.01
		c-3.69-4.363-10.229-3.193-13.583,3.018c-3.354,6.201-19.447,6.537-28.673,3.521c-9.223-3.02-23.81-1.849-44.267,22.135
		c-20.457,23.971-39.195,42.377-63.086,32.192c-23.894-10.188-29.428-3.649-33.072,3.396c-3.648,7.042-6.665,10.436-10.941,8.297
		c-4.277-2.137-10.313-12.449-25.401-3.269c-15.095,9.181-6.794-5.408-14.462-5.533c-7.673-0.125-3.773,8.175-7.673,5.91
		c-3.897-2.263-8.677-19.705-21.924-16.513C13.33,242.591,10.114,239.526,4.89,231.588z"/>
</g>
</svg>
