<?xml version="1.0" encoding="utf-8"?>
<!-- Generator: Adobe Illustrator 16.0.0, SVG Export Plug-In . SVG Version: 6.00 Build 0)  -->
<!DOCTYPE svg PUBLIC "-//W3C//DTD SVG 1.1//EN" "http://www.w3.org/Graphics/SVG/1.1/DTD/svg11.dtd">
<svg version="1.1" xmlns="http://www.w3.org/2000/svg" xmlns:xlink="http://www.w3.org/1999/xlink" x="0px" y="0px"
	 width="960.749px" height="295.921px" viewBox="0 0 960.749 295.921" enable-background="new 0 0 960.749 295.921"
	 xml:space="preserve">
<g>
	<g>
		<path fill="#FFFFFF" d="M943.854,124.582c-8.92-7.804-10.242-12.388-16.173-20.595c-3.995-5.514-12.677-19.221-18.582-22.263
			c-7.972-4.088-27.584-1.312-36.405-3.879c-11.283-3.284-31.982-12.223-41.239-19.147c-18.021-13.495-17.772-36.227-40.139-45.496
			c-49.92-20.697-88.558,39.279-132.983,17.289C637.445,20.154,633.481,1.51,603.75,0.097c-23.849-1.138-28.76,7.889-41.976,22.219
			c-21.312,23.075-30.973,13.703-60.223,19.249c-29.731,5.641-35.948,27.308-60.037,38.022
			c-63.075,28.06-85.376-46.447-146.104-37.926c-22.826,3.207-52.959,15.589-71.684,26.959
			c-18.057,10.959-30.779,32.573-50.576,40.71c-15.008,6.171-32.977-1.023-48.355,2.233c-12.62,2.669-21.13,8.03-33.27,9.484
			c-31.185,3.75-62.493-4.011-91.525,9.438c2.05,10.407,9.627,19.453,20.057,24.463c1.108,10.206,6,23.449,8.523,32.427
			c3.752,13.321,8.49,24.915,27.933,21.318c21.441-3.954,34.159-30.784,55.241-34.219c29.143-4.753,42.659,25.178,45.881,43.5
			c3.501,19.983,8.109,42.334,19.578,59.165c20.9,30.646,41.6,17.202,64.676-2.782c16.985-14.706,34.514-28.029,53.046-42.005
			c18.372-13.865,31.828-37.532,57.258-41.193c41.01-5.905,70.956,36.479,111.754,31.741c21.187-2.46,39.448-20.732,61.338-24.257
			c28.226-4.538,44.921,0.836,61.575,19.013c24.4,26.628,29.972,37.038,70.471,23.153c28.654-9.822,35.617-17.824,60.704-0.472
			c18.37,12.718,26.415,41.08,47.651,50.8c19.719,9.027,56.762,5.266,67.831-11.161c12.239-18.146,7.023-42.161,17.176-60.4
			c11.008-19.789,19.214-40.977,43.669-49.176c21.354-7.161,42.323,1.508,65.628-4.11
			C963.098,147.637,956.461,135.608,943.854,124.582z"/>
		<path fill="#E6EFFA" d="M959.989,166.289c1.312-7.86,0.8-14.502-1.071-20.432c-20.275,3.114-43.458-11.585-59.097-17.147
			c-29.425-10.455-41.524,6.943-67.421,7.573c-23.453,0.573-40.038-7.403-63.588,1.522c-21.02,7.964-32.879,31.087-53.452,39.658
			c-27.764,11.563-32.175-9.362-49.997-19.997c-25.656-15.307-28.113,6.065-45.479,16.328c-13.491,7.969-42.791,6.014-56.133-3.272
			c-18.237-12.693-28.916-33.709-57.148-26.76c-24.66,6.069-30.081,21.162-59.652,15.171c-21.16-4.283-29.61-26.167-50.225-24.547
			c-20.871,1.643-25.597,23.982-51.172,18.922c-21.683-4.297-27.58-22.23-53.693-16.507c-19.844,4.345-36.649,19.113-51.668,32.166
			c-15.358,13.333-30.506,31.685-55.136,21.896c-18.625-7.4-19.038-30.843-42.136-32.058c-10.756-0.563-16.252,10.71-31.889-0.245
			c-7.483-5.248-9.611-14.097-17.25-18.866c-19.779-12.34-41.792,2.521-64.273-1.477c-9.566-1.704-14.667-6.565-19.703-11.455
			c-3.294,1.02-6.565,2.222-9.807,3.723c2.05,10.407,9.627,19.453,20.057,24.463c1.108,10.206,6,23.449,8.523,32.427
			c3.752,13.321,8.49,24.915,27.933,21.318c21.441-3.954,34.159-30.784,55.241-34.219c29.143-4.753,42.659,25.178,45.881,43.5
			c3.501,19.983,8.109,42.334,19.578,59.165c20.9,30.646,41.6,17.202,64.676-2.782c16.985-14.706,34.514-28.029,53.046-42.005
			c18.372-13.865,31.828-37.532,57.258-41.193c41.01-5.905,70.956,36.479,111.754,31.741c21.187-2.46,39.448-20.732,61.338-24.257
			c28.226-4.538,44.921,0.836,61.575,19.013c24.4,26.628,29.972,37.038,70.471,23.153c28.654-9.822,35.617-17.824,60.704-0.472
			c18.37,12.718,26.415,41.08,47.651,50.8c19.719,9.027,56.762,5.266,67.831-11.161c12.239-18.146,7.023-42.161,17.176-60.4
			c11.008-19.789,19.214-40.977,43.669-49.176C915.715,163.238,936.685,171.907,959.989,166.289z"/>
	</g>
</g>
</svg>
