<?xml version="1.0" encoding="utf-8"?>
<!-- Generator: Adobe Illustrator 16.0.0, SVG Export Plug-In . SVG Version: 6.00 Build 0)  -->
<!DOCTYPE svg PUBLIC "-//W3C//DTD SVG 1.1//EN" "http://www.w3.org/Graphics/SVG/1.1/DTD/svg11.dtd">
<svg version="1.1" xmlns="http://www.w3.org/2000/svg" xmlns:xlink="http://www.w3.org/1999/xlink" x="0px" y="0px"
	 width="691.011px" height="370.926px" viewBox="0 0 691.011 370.926" enable-background="new 0 0 691.011 370.926"
	 xml:space="preserve">
<g>
	<path fill="#FFFFFF" d="M12.796,240.193c19.115-29.174-8.048-51.307,33.451-94.275c47.948-49.643,143.613-66.4,226.102-62.373
		c82.5,4.024,156.944-52.316,223.344-76.461c66.401-24.145,191.146,14.085,187.124,104.629
		c-4.025,90.541,37.968,154.928-46.278,169.012c-78.471,13.127-92.557-62.373-136.821-46.279
		c-44.267,16.098-136.823,104.627-237.425,74.446c-52.422-15.725-123.988,15.792-183.098,15.807
		C15.812,324.716-20.954,291.706,12.796,240.193z"/>
	<path fill="#E6EFFA" d="M636.522,217.683c-37.71-13.456-63.766,9.903-81.474-3.394c-22.282-16.736-30.667-36.888-55.332-27.919
		c-25.881,9.408-60.472,48.18-111.338,68.915c-36.118,14.72-87.858-20.124-126.103-9.433c-15.572,4.354-26.568,18.941-48.943,23.515
		c-16.831,3.444-35.548-29.512-62.125-8.009c-31.912,25.812-79.033,24.767-107.564,24.775
		c-29.744,0.009-42.248-25.488-31.578-44.784c-8.42,13.195-12.184,25.158-12.049,35.635c0.4,29.898,32.583,47.725,79.162,47.715
		c59.109-0.015,130.675-31.532,183.098-15.807c100.604,30.181,193.158-58.349,237.422-74.446
		c44.267-16.094,58.352,59.406,136.824,46.279c59.849-10.006,55.981-45.421,50.174-97.545
		C689.512,213.525,665.952,228.191,636.522,217.683z"/>
	<path fill="#E6EFFA" d="M3.701,292.956c4.815,15.143,10.852,25.707,22.425,27.971c11.57,2.262,14.586,1.509,14.334,8.55
		c-0.252,7.042-4.023,19.871,3.271,21.128c7.292,1.259,3.019-8.047,3.268-16.347c0.249-8.3,10.817-8.803,13.331-2.012
		c2.52,6.79,4.781,9.555,12.326,8.3c7.543-1.258,4.779-12.459,12.576-12.27c7.794,0.195,7.291,7.993,23.891,3.216
		c16.601-4.78,23.139-16.6,46.531-11.319c23.389,5.281,37.892-1.511,51.638-9.558c13.751-8.049,33.87-3.019,39.237,2.012
		c5.369,5.03,21.125,17.434,36.889,19.443c15.764,2.012,14.753,10.459,14.418,18.643c-0.33,8.191-1.672,24.287,8.721,19.257
		c10.396-5.03-3.688-22.808,3.018-34.205c6.708-11.406,12.076-6.373,25.826-11.067c13.746-4.7,8.047-11.741,16.427-11.741
		c8.389,0,20.458-0.33,30.186-10.729c9.726-10.398,38.561-4.693,49.295-18.107c10.731-13.418,23.472-28.169,44.597-25.153
		c21.13,3.018,16.015-7.961,28.09-19.279c12.073-11.318,20.117-0.503,20.624,6.037c0.501,6.536,0,13.076,4.276,14.837
		c4.275,1.761,17.096-1.595,18.441,13.495c1.341,15.092-3.349,30.394,4.359,28.783c7.71-1.62-5.275-18.054,5.032-27.777
		c10.308-9.712,17.431,1.345,15.759,13.418c-1.672,12.072-5.36,34.205,14.752,31.525c20.125-2.689-6.367-34.207,9.062-35.212
		c15.424-1.004,7.373,9.055,19.114,14.084c11.736,5.029,8.379-13.079,15.422-13.079c7.045,0,7.709,8.388,22.135,5.03
		c14.421-3.355,34.055-12.75,36.813-58.687c2.764-45.94,0-1.345,0-1.345s-10.657,31.863-40.836,25.153
		c-30.18-6.705-26.496-4.356-43.263,4.022c-16.765,8.387-30.511,2.688-37.89-9.053c-7.381-11.734-13.75-14.084-24.818-15.092
		c-11.067-1.006-1.01-11.395-19.787-16.426c-18.774-5.029-32.027-3.354-54.157,21.292c-22.132,24.648-37.22,22.133-60.865,24.145
		c-23.642,2.012-17.099,18.109-39.739,24.145c-22.635,6.038-45.271-10.06-81.991,13.078c-36.718,23.138-25.653-20.119-36.718-19.113
		c-11.064,1.006-11.064,21.63-35.716,15.593c-24.648-6.038-26.66-1.007-33.198,5.533c-6.541,6.54-11.068,2.012-27.666,0
		c-16.6-2.013-20.121,0-37.477,13.582c-17.351,13.582-23.889,0-33.7-4.527c-9.808-4.527-5.282,6.287-11.57,9.055
		c-6.288,2.766-1.506-7.044-6.288-5.787c-4.779,1.259-6.535,7.123-14.588-2.435c-8.049-9.558-27.576-23.594-45.813-20.45"/>
</g>
</svg>
