<?xml version="1.0" encoding="utf-8"?>
<!-- Generator: Adobe Illustrator 16.0.0, SVG Export Plug-In . SVG Version: 6.00 Build 0)  -->
<!DOCTYPE svg PUBLIC "-//W3C//DTD SVG 1.1//EN" "http://www.w3.org/Graphics/SVG/1.1/DTD/svg11.dtd">
<svg version="1.1" xmlns="http://www.w3.org/2000/svg" xmlns:xlink="http://www.w3.org/1999/xlink" x="0px" y="0px"
	 width="579.084px" height="329.88px" viewBox="0 0 579.084 329.88" enable-background="new 0 0 579.084 329.88"
	 xml:space="preserve">
<g>
	<path fill="#FFFFFF" d="M147.689,7.922c0,0-152.924,14.756-147.551,139.505c5.363,124.749,140.838,52.315,186.447,14.753
		c45.607-37.558,29.51,16.1,155.6,49.631c126.093,33.535,209.26,57.682,233.4-16.097c24.148-73.777-80.477-160.964-198.52-148.892
		C259.02,58.896,241.373-25.606,147.689,7.922z"/>
	<path fill="#E6EFFA" d="M342.186,160.169c-25.827-6.869-45.689-14.582-61.335-22.184c-60.745-29.504-57.995-57.313-94.265-27.448
		c-29.781,24.529-32.583,48.356-62.205,60.351c-27.592,11.169-40.742-12.228-75.455,0c-35.105,12.37-48.914-30.207-46.508-55.042
		C0.492,125.502-0.356,136,0.139,147.424c5.363,124.75,140.838,52.314,186.447,14.754c45.607-37.559,29.51,16.1,155.6,49.631
		c126.093,33.534,209.26,57.682,233.4-16.096c5.201-15.887,4.399-32.389-1.188-48.396c4.688,55.104-55.819,60.471-137.643,11.509
		C412.416,144.264,376.676,169.342,342.186,160.169z"/>
	<path fill="#E6EFFA" d="M330.104,208.413c0,0-20.11-8.003-23.628,8.096c-3.524,16.096-6.543,108.234-11.572,110.203
		c-2.695,1.056-4.557-30.591-7.006-62.874c-0.918-12.076,2.791-24.017,1.636-34.587c-1.515-13.882-8.003-25.239-10.226-29.846
		c-6.913-14.334-18.096-20.43-18.096-20.43c5.143-8.051-15.891-27.426-15.891-27.426l69.2,14.658l43.261,20.12"/>
	<path fill="#CBE0FA" d="M10.195,192.362c0,0,24.148,42.253,71.766,42.923c47.618,0.671,57.677-25.485,65.057-14.085
		c7.377,11.404-10.059,21.465,0,26.831c10.059,5.364,27.495,8.049,22.803-22.133c-4.695-30.183-6.036-36.887,9.389-38.23
		c15.428-1.341,8.049-27.499,27.497-25.487c19.451,2.012,15.427,18.781,32.866,20.792c17.438,2.012,33.533,4.694,36.889,30.182
		c3.354,25.486,13.682,11.13,12.561,30.907c-1.123,19.776-7.193,57.374,5.883,82.649c13.078,25.275,0.344-108.817,17.775-113.557
		c17.425-4.742,28.503-4.694,45.104,12.743c16.594,17.435,21.961,16.75,37.385,12.399c15.428-4.352,22.809-12.485,51.646,7.677
		c28.842,20.165,112.008,4.738,120.057-29.465c8.045-34.207-29.514,45.607-87.861,3.353c-58.352-42.253-82.495-5.364-94.568-14.083
		c-12.07-8.721-15.088-8.048-26.658-3.356c-11.57,4.695-41.75,2.014-52.484-8.047c-10.73-10.06-42.25-22.354-56.337-32.302
		c-14.085-9.952-14.085-30.258-38.23-21.111c-24.146,9.149-22.804,22.537-32.866,29.927c-10.055,7.39-34.199,3.363-57.674,26.169
		c-23.479,22.804-62.616,23-75.119-0.669c-12.505-23.673-8.05,12.073-18.783,5.363C15.561,195.043,10.195,192.362,10.195,192.362z"
		/>
</g>
</svg>
