<?xml version="1.0" encoding="utf-8"?>
<!-- Generator: Adobe Illustrator 16.0.0, SVG Export Plug-In . SVG Version: 6.00 Build 0)  -->
<!DOCTYPE svg PUBLIC "-//W3C//DTD SVG 1.1//EN" "http://www.w3.org/Graphics/SVG/1.1/DTD/svg11.dtd">
<svg version="1.1" xmlns="http://www.w3.org/2000/svg" xmlns:xlink="http://www.w3.org/1999/xlink" x="0px" y="0px"
	 width="1740.78px" height="228.248px" viewBox="0 0 1740.78 228.248" enable-background="new 0 0 1740.78 228.248"
	 xml:space="preserve">
<g>
	<g>
		<path fill="#FFFFFF" d="M1738.318,84.274c-0.933-1.939-2.53-3.604-4.444-5.121c-10.854-3.862-25.126-2.502-37.616-5.727
			c-22.307-5.762-34.153-19.659-50.085-32.622c-4.951-4.03-10.342-7.138-16.014-9.509c-22.097-5.062-40.311-2.359-63.802,0.682
			c-15.528,2.01-32.511,3.891-47.773-0.5c-15.139-4.359-27.575-11.53-40.864-18.732c-9.161-4.961-18.144-8.559-27.779-11.137
			c-0.71-0.015-1.439-0.007-2.157-0.015c-30.404,12.357-59.817,36.616-95.644,29.652c-32.813-6.38-64.132-39.813-100.411-29.17
			c-8.366,2.457-15.453,6.78-22.125,11.626c-8.828,10.561-16.508,22.469-27.985,30.654c-28.535,20.351-69.638,12.255-103.891,12.448
			c-22.393,0.123-42.557-0.978-63.845-7.304c-8.468-2.521-17.198-5.606-26.102-8.084c-3.804-0.716-7.542-1.602-11.192-2.69
			c-6.354-1.244-12.774-1.958-19.233-1.706c-30.481,1.197-66.859,11.279-93.563-5.065c-13.874-2.1-26.48-4.245-35.602-5.04
			c-38.645-3.365-57.294-26.534-97.721-20.188c-14.102,2.213-22.57,8.889-38.928,8.74c-20.244-0.188-35.952-5.791-56.351-6.898
			C613.47,6.303,586.098,30.93,546.952,31.564c-32.771,0.53-63.751-11.214-94.513-16.481c-40.343-6.909-57.967-1.814-92.318,12.578
			c-23.111,9.68-40.893,25.663-69.868,24.601c-33.666-1.239-65.597-18.514-103.172-16.146c-24.727,1.557-59.34,4.22-83.679,9.134
			C86.46,48.667,81.833,60.7,67.821,66.229c-9.81,3.875-22.477,0.963-34.161,2.137c-30.013,3.021-50.83,27.053-13.947,36.792
			c17.919,4.728,33.831-1.447,48.754-8.081c1.456,0.311,2.901,0.65,4.313,1.083c17.833,5.436,23.066,25.312,38.435,34.777
			c39.448,24.287,64.576-16.577,101.604-20.876c27.333-3.17,58.104-3.743,85.237-4.599c38.39-1.21,52.329,30.75,84.167,33.527
			c26.993,2.359,39.455-26.641,74.842-15.751c31.372,9.655,30.206,38.631,62.422,44.323c37.193,6.567,41.846-25.061,74.893-20.699
			c15.645,2.059,23.704,8.985,41.296,11.5c18.424,2.633,38.113-1.837,55.575,6.899c12.754,6.383,21.505,21.234,34.242,28.934
			c16.268,9.828,37.624,15.508,56.008,22.181c36.146,13.121,60.255,11.991,97.564,1.205c35.302-10.208,59.492-31.705,83.673-56.409
			c22.538-23.027,47.182-27.574,83.553-30.415c39.745-3.098,47.463,0.534,69.472,24.567c12.756,13.927,24.372,29.25,47.214,28.32
			c23.599-0.969,21.656-15.882,39.608-24.989c40.33-20.463,124.92-4.16,164.523,13.442c46.075,20.477,98.38,87.223,144.358,33.998
			c18.503-21.42,15.789-52.021,39.743-68.435c23.543-16.131,43.262,1.039,69.757,9.337c29.16,9.13,77.808,11.676,102.506-10.031
			C1734.479,129.295,1745.922,100.126,1738.318,84.274z"/>
		<path fill="#E6EFFA" d="M1738.318,84.274c-0.933-1.939-2.53-3.604-4.444-5.121c-10.854-3.862-25.126-2.502-37.616-5.727
			c-5.92-1.531-11.09-3.643-15.814-6.152c-2.724,3.396-5.213,6.531-10.24,8.887c-5.879,2.753-16.734-2.419-22.05,0.214
			c-9.566,4.753-12.933,10.377-10.342,20.383c-34.363,1.601-62.717-8.275-94.411-10.113c-40.932-2.367-29.255,27.931-52.065,37.166
			c-22.412,9.072-39.971-6.02-61.014,10.078c-15.683,12.005-6.322,17.743-31.54,14.524c-8.436-1.077-17.146-5.927-25.354-9.767
			c-23.21-10.875-40.666-32.181-69.18-37.667c-36.834-7.09-65.058,10.661-94.053,24.392c-21.436,10.151-46.762,16.089-67.88,3.18
			c-12.419-7.591-17.344-20.891-32.811-25.36c-8.353-2.417-23.855-0.413-32.373-1.462c-25.081-3.094-45.52-2.561-71.693-0.45
			c-12.11,0.974-25.455-2.109-37.364-0.1c-17.385,2.935-12.303,4.034-24.357,14.023c-18.109,15.017-38.038,12.806-55.485,29.104
			c-14.745,13.773-23.632,29.167-52.176,18.583c-13.727-5.091-6.413-14.307-24.914-14.468c-10.9-0.094-14.75,9.678-24.99,12.015
			c-25.08,5.717-44.585-10.709-57.425-24.18c-18.695-19.612-31.19-34.216-67.058-28.459c-25.587,4.108-43.354,14.265-71.747,7.242
			c-10.112-2.501-21.952-12.166-30.886-13.453c-13.679-1.963-17.558,4.235-26.846,5.451c-9.687,1.267-26.2,2.262-34.991-1.71
			c-10.151-4.587-10.872-17.437-19.19-22.789c-20.577-13.239-44.338-5.227-62.279,2.619c-14.072,6.155-10.328,8.882-28.639,9.859
			c-11.705,0.627-24.887-1.305-36.868-2.054c-25.127-1.567-35.213-8.146-57.296-14.835c-29.933-9.062-49.973,5.792-79.716,4.569
			c-27.265-1.125-43.473-8.564-69.688-0.456c-13.159,4.067-16.789,8.979-32.521,8.667c-15.13-0.301-13.688-4.506-25.329-8.26
			c-25.554-8.243-37.589,0.322-64.104,2.101c-7.871,0.528-14.373,0.049-19.455-1.303c-5.102,7.802-1.493,16.674,17.598,21.714
			c17.919,4.728,33.831-1.447,48.754-8.081c1.456,0.311,2.901,0.65,4.313,1.083c17.833,5.436,23.066,25.312,38.435,34.777
			c39.448,24.287,64.576-16.577,101.604-20.876c27.333-3.17,58.104-3.743,85.237-4.599c38.39-1.21,52.329,30.75,84.167,33.527
			c26.993,2.359,39.455-26.641,74.842-15.751c31.372,9.655,30.206,38.631,62.422,44.323c37.193,6.567,41.846-25.061,74.893-20.699
			c15.645,2.059,23.704,8.985,41.296,11.5c18.424,2.633,38.113-1.837,55.575,6.899c12.754,6.383,21.505,21.234,34.242,28.934
			c16.268,9.828,37.624,15.508,56.008,22.181c36.146,13.121,60.255,11.991,97.564,1.205c35.302-10.208,59.492-31.705,83.673-56.409
			c22.538-23.027,47.182-27.574,83.553-30.415c39.745-3.098,47.463,0.534,69.472,24.567c12.756,13.927,24.372,29.25,47.214,28.32
			c23.599-0.969,21.656-15.882,39.608-24.989c40.33-20.463,124.92-4.16,164.523,13.442c46.075,20.477,98.38,87.223,144.358,33.998
			c18.503-21.42,15.789-52.021,39.743-68.435c23.543-16.131,43.262,1.039,69.757,9.337c29.16,9.13,77.808,11.676,102.506-10.031
			C1734.479,129.295,1745.922,100.126,1738.318,84.274z"/>
	</g>
</g>
</svg>
