<?xml version="1.0" encoding="utf-8"?>
<!-- Generator: Adobe Illustrator 16.0.0, SVG Export Plug-In . SVG Version: 6.00 Build 0)  -->
<!DOCTYPE svg PUBLIC "-//W3C//DTD SVG 1.1//EN" "http://www.w3.org/Graphics/SVG/1.1/DTD/svg11.dtd">
<svg version="1.1" xmlns="http://www.w3.org/2000/svg" xmlns:xlink="http://www.w3.org/1999/xlink" x="0px" y="0px"
	 width="1012.959px" height="183.621px" viewBox="0 0 1012.959 183.621" enable-background="new 0 0 1012.959 183.621"
	 xml:space="preserve">
<g>
	<g>
		<path fill="#FFFFFF" d="M961.134,76.323c-15.3-7.659-31.313-7.731-48.969-9.191c-27.671-2.288-41.301-11.364-59.525-26.401
			c-18.608-15.363-29.669-21.84-58.395-20.792c-25.574,0.934-46.459,8.048-70.795,11.895c-25.048,3.96-50.534,0.846-71.142-6.835
			c-14.822-5.524-28.776-12.346-42.543-17.552c-31.022-11.735-65.855-8.189-97.147,0.895c-18.57,5.395-33.179,17.238-50.998,23.89
			c-25.632,9.565-33.115,1.467-55.521-6.904c-10.614-3.965-22.806-3.791-34.207-1.968c-17.522,2.807-30.785,8.7-50.416,7.916
			c-9.212-0.365-21.413-1.693-29.358-4.944c-7.528-3.079-11.5-10.455-18.826-13.269c-14.342-5.514-45.678,0.641-59.438,5.02
			c-18.397,5.857-34.874,15.488-52.154,22.965c-6.865,0.026-13.735,0.098-20.605,0.347C106.899,42.643-28.566,26.162,5.427,77.719
			c39.668,60.165,138.217,6.997,199.424,31.134c44.783,17.664,64.73,59.633,114.334,72.395
			c63.295,16.277,99.635-56.207,157.303-64.725c22.16-3.274,41.166,3.982,56.439,15.059c15.74,11.418,39.411,20.33,59.635,9.58
			c20.069-10.666,30.707-21.99,54.177-28.037c22.933-5.908,37.528,2.937,59.637,7.669c19.121,4.093,35.969,7.904,48.344,21.023
			c6.84,7.249,9.061,17.217,15.961,23.927c3.827,3.715,20.502,15.097,26.278,15.659c18.501,1.807,33.823-16.941,47.572-27.79
			c17.197-13.565,37.402-16.744,58.055-17.765c8.9-0.439,19.055-2.266,27.514,1.749c10.166,4.827,10.711,16.355,18.293,23.764
			c9.943,9.711,33.905,9.289,48.311,3.051C1039.633,145.801,986.841,89.193,961.134,76.323z"/>
		<g>
			<g>
				<path fill="#E6EFFA" d="M935.14,108.66c-18.461-11.35-34.74-10.097-55.656-10.097c-9.71,0-19.474-0.313-29.179,0
					c-14.264,0.462-15.532,3.912-26.95,7.866c-18.624,6.447-35.963,2.818-53.989-4.391c-18.374-7.351-38.653-10.813-57.906-19.444
					c-18.099-8.112-35.758-10.559-56.521-10.559c-23.596,0-41.265-0.374-60.414,12.188c-17.53,11.496-30.724,18.605-50.136,9.911
					c-20.533-9.202-35.1-19.532-60.511-13.935c-22.294,4.909-29.876,28.901-53.956,30.203c-26.776,1.444-26.861-17.253-53.179-1.629
					c-17.34,10.292-41.072,18.783-62.467,12.335c-38.667-11.657-70.151-72.564-113.095-59.877
					c-12.055,3.564-19.594,12.13-32.972,12.846c-11.338,0.606-20.809-3.349-31.174-6.073c-12.783-3.354-29.022-8.505-42.614-3.717
					c-8.895,3.136-11.275,10.91-21.748,11.829c-10.958,0.962-20.612-6.455-31.178-8.154c-9.286-1.495-19.915-0.008-29.277-0.008
					c-2.844,0-6.896,0.253-11.372,0.417c0.844,2.836,2.332,5.941,4.58,9.35c39.668,60.165,138.217,6.997,199.424,31.134
					c44.783,17.664,64.73,59.633,114.334,72.395c63.295,16.277,99.635-56.207,157.303-64.725
					c22.16-3.274,41.166,3.982,56.439,15.059c15.74,11.418,39.411,20.33,59.635,9.58c20.069-10.666,30.707-21.99,54.177-28.037
					c22.933-5.908,37.528,2.937,59.637,7.669c19.121,4.093,35.969,7.904,48.344,21.023c6.84,7.249,9.061,17.217,15.961,23.927
					c3.827,3.715,20.502,15.097,26.278,15.659c18.501,1.807,33.823-16.941,47.572-27.79c17.197-13.565,37.402-16.744,58.055-17.765
					c8.9-0.439,19.055-2.266,27.514,1.749c10.166,4.827,10.711,16.355,18.293,23.764c9.943,9.711,33.905,9.289,48.311,3.051
					c23.06-9.997,18.49-30.952,5.344-50.209c-5.344,5.369-11.286,10.863-19.355,13.134
					C961.13,133.402,950.504,118.102,935.14,108.66z"/>
			</g>
		</g>
	</g>
</g>
</svg>
