<?xml version="1.0" encoding="utf-8"?>
<!-- Generator: Adobe Illustrator 16.0.0, SVG Export Plug-In . SVG Version: 6.00 Build 0)  -->
<!DOCTYPE svg PUBLIC "-//W3C//DTD SVG 1.1//EN" "http://www.w3.org/Graphics/SVG/1.1/DTD/svg11.dtd">
<svg version="1.1" xmlns="http://www.w3.org/2000/svg" xmlns:xlink="http://www.w3.org/1999/xlink" x="0px" y="0px"
	 width="872.347px" height="306.111px" viewBox="0 0 872.347 306.111" enable-background="new 0 0 872.347 306.111"
	 xml:space="preserve">
<g>
	<g>
		<path fill="#FFFFFF" d="M2.975,64.214c9.305-16.881,36.091-9.657,53.361-10.797c23.121-1.529,46.309-10.51,70.039-6.451
			c26.449,4.531,33.566,17.179,60.013,6.451c12.059-4.897,24.394-15.747,36.989-18.897c15.762-3.937,37.218-0.32,53.467-0.32
			c26.893,0,50.994,5.196,76.331,6.404c12.147,0.585,26.193,1.471,38.188,0c18.751-2.311,19.136-8.547,31.931-19.212
			c24.11-20.097,68.226-24.635,98.452-19.373c14.318,2.493,26.402,14.947,40.503,17.281c11.254,1.868,21.364-2.776,31.871-4.306
			c51.665-7.521,95.761,19.87,143.666,0.468c43.047-17.433,87.816-6.753,133.688-4.419c2.331,8.796,0.126,16.423-8.217,18.89
			l-2.132,2.135c-20.785,14.184-7.932,14.139-10.568,34.154c-2.44,18.578-9.358,14.217-21.15,13.746v49.929
			c0,3.518-2.852,6.374-6.37,6.374c-3.519,0-6.368-2.856-6.368-6.374V81.611c-3.822,1.103-7.434,2.446-10.778,4.074v89.307
			c0,3.519-2.86,6.368-6.377,6.368c-3.52,0-6.369-2.849-6.369-6.368v-81.22c-19.537,15.433-30.945,39.786-46.835,59.614
			c-23.699,29.557-44.375,59.881-75.691,56.048v29.303c0,3.519-2.853,6.369-6.375,6.369c-3.519,0-6.367-2.85-6.367-6.369v-32.597
			c-2.857-1.103-5.798-2.476-8.83-4.132v97.736c0,3.513-2.853,6.37-6.375,6.37c-3.514,0-6.37-2.857-6.37-6.37v-105.99
			c-6.439-4.666-12.594-9.272-18.624-13.713v65.786c0,3.52-2.849,6.369-6.369,6.369c-3.521,0-6.377-2.85-6.377-6.369v-74.967
			c-16.947-11.847-34.021-21.839-55.477-27.779c-21.821-6.033-34.992-20.01-57.651-21.351
			c-48.585-2.875-83.87,15.551-123.904,37.901c-8.174,4.56-16.755,12.054-25.768,18.768v109.103c0,3.519-2.863,6.375-6.381,6.375
			c-3.519,0-6.368-2.856-6.368-6.375V186.814c-4.635,2.551-9.374,4.501-14.227,5.4c-1.065,0.197-2.16,0.323-3.249,0.45v53.161
			c0,3.52-2.854,6.369-6.376,6.369c-3.516,0-6.367-2.85-6.367-6.369V192.8c-19.265-1.523-40.476-9.723-57.099-13.376
			c-30.618-6.736-38.96-23.031-66.759-38.642c-21.396-12.011-48.929-8.404-71.426-12.537c-6.911-1.268-12.923-2.89-18.464-4.808
			v103.207c0,3.511-2.85,6.368-6.373,6.368c-3.52,0-6.37-2.857-6.37-6.368V118.229c-6.803-3.188-13.33-6.819-20.581-10.757v75.14
			c0,3.525-2.852,6.376-6.375,6.376c-3.518,0-6.373-2.851-6.373-6.376v-81.877c-3.043-1.517-6.794-2.927-10.775-4.399v102.947
			c0,3.517-2.854,6.367-6.377,6.367c-3.52,0-6.368-2.85-6.368-6.367V91.325C4.041,85.969-4.892,78.482,2.975,64.214z"/>
		<path fill="#E6EFFA" d="M4.072,62.579c0.017,0.036,0.043,0.058,0.061,0.096c4.348,7.84,6.351,14.113,15.95,16.356
			c7.798,1.831,16.562-1.058,24.387,0.622c8.543,1.837,10.338,9.138,20.45,8.499c8.47-0.54,17.779-3.652,27.428-1.747
			c11.221,2.214,10.758,13.874,21.065,14.495c8.558,0.525,11.798-7.052,19.512-8.502c11.903-2.228,15.776,8.938,23.783,14.781
			c8.237,6.004,23.295,10.954,33.215,12.424c13.826,2.056,37.598,2.334,49.427-5.063c8.08-5.048,10.925-14.517,19.641-19.613
			c12.092-7.067,28.155-3.66,40.534,2.532c9.301,4.658,15.557,9.055,21.989,17.344c5.192,6.708,6.75,9.296,16.129,9.888
			c8.146,0.526,17.859-0.813,23.714-5.941c5.813-5.11,7.465-10.75,16.246-13.812c9.996-3.481,16.456,2.79,26.579,2.767
			c10.482-0.029,13.202-4.891,20.131-11.268c8.455-7.774,15.746-14.135,22.094-24.481c9.765-15.911,20.788-20.368,39.313-20.36
			c29.007,0.032,52.025,17.983,64.793,43.467c6.308,12.59,8.496,11.967,19.774,5.627c15.143-8.507,18.591-3.895,29.795,5.262
			c10.037,8.206,24.53,14.612,37.317,7.832c6.866-3.647,10.954-10.796,14.92-16.243c6.168-8.458,9.277-8.269,21.281-7.691
			c12.35,0.599,16.956,2.67,23.977,12.59c5.954,8.411,9.624,10.579,21.276,9.514c13.698-1.261,13.423-12.132,22.864-19.575
			c3.393-2.673,9.828-3.467,12.649-6.61c2.495-2.769,2.59-9.123,5.228-12.107c8.759-9.904,16.417-5.522,26.83-8.449
			c9.078-2.551,19.634-12.422,23.323-20.991c1.803-4.184,2.688-11.407,7.442-13.68c5.396-2.582,6.215,1.008,11.854,0.723
			c11.824-0.595,12.747-13.354,18.731-20.259c0.446-0.513,0.967-1.05,1.538-1.602c7.361,0.662,14.749,1.264,22.164,1.643
			c2.331,8.796,0.126,16.423-8.217,18.89l-2.132,2.135c-20.785,14.184-7.932,14.139-10.568,34.154
			c-2.44,18.578-9.358,14.217-21.15,13.746v49.929c0,3.518-2.852,6.374-6.37,6.374c-3.519,0-6.368-2.856-6.368-6.374V81.611
			c-3.822,1.103-7.434,2.446-10.778,4.074v89.307c0,3.519-2.86,6.368-6.377,6.368c-3.52,0-6.369-2.849-6.369-6.368v-81.22
			c-19.537,15.433-30.945,39.786-46.835,59.614c-23.699,29.557-44.375,59.881-75.691,56.048v29.303c0,3.519-2.853,6.369-6.375,6.369
			c-3.519,0-6.367-2.85-6.367-6.369v-32.597c-2.857-1.103-5.798-2.476-8.83-4.132v97.736c0,3.513-2.853,6.37-6.375,6.37
			c-3.514,0-6.37-2.857-6.37-6.37v-105.99c-6.439-4.666-12.594-9.272-18.624-13.713v65.786c0,3.52-2.849,6.369-6.369,6.369
			c-3.521,0-6.377-2.85-6.377-6.369v-74.967c-16.947-11.847-34.021-21.839-55.477-27.779c-21.821-6.033-34.992-20.01-57.651-21.351
			c-48.585-2.875-83.87,15.551-123.904,37.901c-8.174,4.56-16.755,12.054-25.768,18.768v109.103c0,3.519-2.863,6.375-6.381,6.375
			c-3.519,0-6.368-2.856-6.368-6.375V186.814c-4.635,2.551-9.374,4.501-14.227,5.4c-1.065,0.197-2.16,0.323-3.249,0.45v53.161
			c0,3.52-2.854,6.369-6.376,6.369c-3.516,0-6.367-2.85-6.367-6.369V192.8c-19.265-1.523-40.476-9.723-57.099-13.376
			c-30.618-6.736-38.96-23.031-66.759-38.642c-21.396-12.011-48.929-8.404-71.426-12.537c-6.911-1.268-12.923-2.89-18.464-4.808
			v103.207c0,3.511-2.85,6.368-6.373,6.368c-3.52,0-6.37-2.857-6.37-6.368V118.229c-6.803-3.188-13.33-6.819-20.581-10.757v75.14
			c0,3.525-2.852,6.376-6.375,6.376c-3.518,0-6.373-2.851-6.373-6.376v-81.877c-3.043-1.517-6.794-2.927-10.775-4.399v102.947
			c0,3.517-2.854,6.367-6.377,6.367c-3.52,0-6.368-2.85-6.368-6.367V91.325C4.041,85.969-4.892,78.482,2.975,64.214
			C3.3,63.619,3.7,63.119,4.072,62.579z"/>
	</g>
</g>
</svg>
