<?xml version="1.0" encoding="utf-8"?>
<!-- Generator: Adobe Illustrator 16.0.0, SVG Export Plug-In . SVG Version: 6.00 Build 0)  -->
<!DOCTYPE svg PUBLIC "-//W3C//DTD SVG 1.1//EN" "http://www.w3.org/Graphics/SVG/1.1/DTD/svg11.dtd">
<svg version="1.1" xmlns="http://www.w3.org/2000/svg" xmlns:xlink="http://www.w3.org/1999/xlink" x="0px" y="0px"
	 width="1940.903px" height="289.149px" viewBox="0 0 1940.903 289.149" enable-background="new 0 0 1940.903 289.149"
	 xml:space="preserve">
<g>
	<g>
		<path fill="#FFFFFF" d="M87.99,74.244C64.444,87.107,13.57,95.547,3.092,121.73c-14.723,36.803,26.272,47.492,56.541,47.485
			c39.985-0.009,73.281-17.015,113.099-18.993c37.375-1.857,64.913,11.524,99.47,12.649c45.906,1.499,73.463-21.231,117.016-28.553
			c32.091-5.396,74.475-6.717,107.396-3.091c38.938,4.289,71.81,20.06,113.638,22.162c37.188,1.865,62.857-9.169,94.353-19.516
			c57.817-18.994,98.501-0.661,155.25,8.586c44.031,7.175,85.42-7.735,126.639-13.768c40.646-5.944,66.28,7.223,102.158,15.422
			c36.479,8.335,78.051,1.439,112.397-4.095c44.112-7.102,87.261-4.039,132.373-2.385c26.212,0.958,51.187-6.222,76.567-6.483
			c28.9-0.288,39.898,10.548,65.199,19.149c25.655,8.729,72.041,10.993,96.99,3.151c15.729-4.948,29.055-17.325,43.948-22.048
			c22.167-7.032,42.262-5.682,67.301-6.507c48.76-1.606,86.865-23.232,131.879-28.492c52.263-6.104,86.743,7.433,125.597-31.58
			c-30.146-67.268-140.795-30.767-196.347-25.402c-91.42,8.823-185.645-16.218-276.128,0.796
			c-43.656,8.207-80.115,18.19-125.99,18.197c-45.252,0.009-85.272-8.665-129.245-12.898c-94.381-9.086-189.252-31.77-285.797-44
			c-65.088-8.243-113.184,19.759-177.853,22.077c-41.118,1.474-83.12-3.119-124.123,0.013
			c-39.723,3.031-76.391,14.655-117.178,18.354c-43.726,3.964-103.465,5.585-146.554-0.087
			c-34.629-4.557-65.745-18.631-104.744-11.938c-28.82,4.948-53.289,26.045-84.562,31.648
			C143.481,66.759,115.738,64.301,87.99,74.244"/>
		<path fill="#E6EFFA" d="M1940.903,64.822c-3.465-7.725-8.025-14.027-13.406-19.217c-39.598-1.917-65.77,17.791-102.244,22.305
			c-38.05,4.712-72.001,3.352-105.031,12.571c-37.008,10.328-66.314,4.624-106.557,6.424c-35.273,1.579-59.788,21.512-91.431,25.327
			c-33.991,4.097-67.506-8.453-102.364-9.499c-40.572-1.216-73.516-15.944-113.535-15.828
			c-82.138,0.238-159.819-7.037-241.382-6.332c-77.261,0.67-132.663,16.272-208.864-9.52
			C817.953,58.152,788.99,43.25,746.862,52.788c-41.006,9.287-70.728,27.944-115.995,27.786
			c-38.246-0.13-75.361-13.214-112.23-9.497c-43.943,4.427-83.113,19.104-130.007,18.997c-35.817-0.087-71.633,0.074-107.449,0
			c-46.754-0.103-72.347,9.742-108.38,25.398c-37.474,16.284-80.437,26.129-122.87,25.251c-20.162-0.417-35.326-5.411-49.034-12.033
			c-7.08,30.971,29.908,40.389,58.097,40.517v112.463c0,4.129,3.35,7.478,7.475,7.478c4.132,0,7.479-3.349,7.479-7.478V168.505
			c10.79-1.025,21.18-3.081,31.468-5.46v108.136c0,4.128,3.344,7.478,7.471,7.478c4.13,0,7.477-3.349,7.477-7.478V159.442
			c7.524-1.856,15.059-3.693,22.729-5.252v53.213c0,4.129,3.347,7.479,7.478,7.479c4.127,0,7.473-3.349,7.473-7.479V151.61
			c4.808-0.659,9.697-1.141,14.688-1.388c37.375-1.857,64.913,11.524,99.47,12.649c45.906,1.499,73.463-21.231,117.016-28.553
			c32.091-5.396,74.475-6.717,107.396-3.091c38.938,4.289,71.81,20.06,113.638,22.162c37.188,1.865,62.857-9.169,94.353-19.516
			c57.817-18.994,98.501-0.661,155.25,8.586c44.031,7.175,85.42-7.735,126.639-13.768c40.646-5.944,66.28,7.223,102.158,15.422
			c36.479,8.335,78.051,1.439,112.397-4.095c44.112-7.102,87.261-4.039,132.373-2.385c26.212,0.958,51.187-6.222,76.567-6.483
			c28.9-0.288,39.898,10.548,65.199,19.149c25.655,8.729,72.041,10.993,96.99,3.151c15.729-4.948,29.055-17.325,43.948-22.048
			c22.167-7.032,42.262-5.682,67.301-6.507c26.577-0.875,49.981-7.697,73.073-14.578v158.969c0,4.131,3.348,7.478,7.475,7.478
			c4.129,0,7.479-3.346,7.479-7.478V105.922c14.283-4.1,28.68-7.746,43.853-9.52c12.722-1.484,24.38-1.806,35.313-2.007v110.033
			c0,4.13,3.354,7.478,7.483,7.478c4.12,0,7.468-3.348,7.468-7.478V94.082c5.332-0.161,10.508-0.428,15.57-0.931v159.922
			c0,4.128,3.344,7.478,7.479,7.478c4.123,0,7.479-3.349,7.479-7.478V90.759C1911.247,87.25,1925.745,80.045,1940.903,64.822z"/>
	</g>
</g>
</svg>
