<?xml version="1.0" encoding="utf-8"?>
<!-- Generator: Adobe Illustrator 16.0.0, SVG Export Plug-In . SVG Version: 6.00 Build 0)  -->
<!DOCTYPE svg PUBLIC "-//W3C//DTD SVG 1.1//EN" "http://www.w3.org/Graphics/SVG/1.1/DTD/svg11.dtd">
<svg version="1.1" xmlns="http://www.w3.org/2000/svg" xmlns:xlink="http://www.w3.org/1999/xlink" x="0px" y="0px"
	 width="1011.476px" height="154.556px" viewBox="0 0 1011.476 154.556" enable-background="new 0 0 1011.476 154.556"
	 xml:space="preserve">
<g>
	<g>
		<path fill="#FFFFFF" d="M998.495,91.454c2.54-2.488,5.125-5.013,7.542-7.68c3.146-5.208,6.913-13.185,4.847-17.422
			c-3.518-2.152-7.195-2.321-11.04-0.423c-9.098,3.317-17.456,6.681-26.955,6.324c-18.856,0.701-27.659-13.47-45.669-25.327
			c-22.748-14.966-29.238-3.57-51.222-0.968c-27.973,3.31-26.856-16.141-43.891-30.345C811.756-1.36,788.188,1.76,765.352,9.148
			c-1.997-1.227-3.954-2.362-5.694-3.394c-22.689-13.48-44.281,1.265-66.469-1.076c-13.763-1.451-27.094-0.191-39.862,4.46
			c-12.068,4.399-24.759,6.744-37.94,1.212c-13.819-5.803-22.384-10.365-37.529-5.349c-6.594,2.182-9.123,4.449-17.445,3.154
			c-5.539-0.863-9.712-3.96-16.133-2.596c-9.927,2.109-18.639,11.29-24.21,20.334c-6.744,10.953-4.011,18.345-18.05,19.209
			c-14.592,0.895-19.569,5.623-32.129,12.209c-1.309,0.686-2.726,1.259-4.188,1.777C409.439,52.35,385.626-4.874,322.32,18.824
			c-24.061,9.006-51.61,28.576-78.656,15.533c-10.087-4.864-15.665-17.048-26.081-21.658c-11.834-5.239-35.435-9.218-48.53-4.691
			c-13.88,4.801-11.672,10.131-21.918,20.62c-15.122,15.473-16.15,16.381-41.019,15.221c-21.314-0.993-55.291-13.307-76.241-5.18
			C7.83,47.222-8.018,77.917,4.313,100.827c13.382,24.865,60.041,26.244,84.212,19.395c34.505-9.779,38.125-19.875,72.842-7.115
			c11.448,4.204,21.619,6.703,34.114,7.562c11.764,0.806,29.384-7.385,39.005-5.25c13.593,3.011,11.948,11.298,23.778,17.666
			c11.69,6.299,28.921,5.042,42.516,5.51c27.074,0.935,52.598,5.013,78.959,10.384c16.609,3.383,34.858,7.048,52.367,4.973
			c21.411-2.54,31.658-13.185,51.5-20.53c26.535-9.819,50.357-1.779,76.243,3.182c27.244,5.22,39.787-8.214,62.632-17.469
			c9.852-0.666,19.56-2.569,29.051-5.724c21.106,0.241,40.32,9.288,63.446,14.238c39.439,8.446,30.509-11.791,59.023-29.573
			c24.239-15.112,63.876-6.146,87.966,3.966c27.577,11.577,55.093,19.873,81.603,18.653c14.494-2.457,28.239-9.306,41.174-17.307
			C989.52,99.734,994.11,95.755,998.495,91.454z"/>
		<path fill="#E6EFFA" d="M1010.884,66.353c-3.518-2.152-7.195-2.321-11.04-0.423c-8.818,3.216-16.948,6.44-26.084,6.316
			c-4.621,4.953-9.47,10.16-16.417,14.329c-8.885,5.339-14.835,5.788-25.318,5.283c-16.767-0.807-13.385-3.878-26.145-12.625
			c-18.969-13.004-27.415-1.67-47.486-2.753c-20.837-1.123-40.426-20.845-63.153-23.129c-20.092-2.026-37.854,3.894-55.502,12.105
			c-16.322,7.595-32.554,22.191-50.264,24.474c-23.297,3.003-47.537-29.634-67.541-19.713
			c-20.222,10.033-18.905,35.614-49.255,35.083c-18.449-0.32-29.563-14.308-47.71-15.362c-11.982-0.698-16.894,5.489-27.375,7.775
			c-13.151,2.866-29.153-6.352-40.46-4.497c-18.605,3.045-31.079,29.787-56.633,23.646c-21.435-5.15-24.367-28.576-42.094-38.005
			c-21.251-11.307-34.189,2.745-53.099,6.81c-23.013,4.95-34.741-9.545-54.938-13.013c-7.768-1.333-16.123,1.209-23.91,0
			c-11.438-1.779-17.806-7.818-28.391-11.516c-16.287-5.695-29.345,3.496-44.315,10.022c-17.78,7.75-31.792,6.498-51.712,7.253
			c-19.16,0.729-37.087,8.013-56.322,5.762c-22.045-2.58-22.365-18.102-37.098-27.757c-8.759,13.055-11.949,30.219-4.309,44.41
			c13.382,24.865,60.041,26.244,84.212,19.395c34.505-9.779,38.125-19.875,72.842-7.115c11.448,4.204,21.619,6.703,34.114,7.562
			c11.764,0.806,29.384-7.385,39.005-5.25c13.593,3.011,11.948,11.298,23.778,17.666c11.69,6.299,28.921,5.042,42.516,5.51
			c27.074,0.935,52.598,5.013,78.959,10.384c16.609,3.383,34.858,7.048,52.367,4.973c21.411-2.54,31.658-13.185,51.5-20.53
			c26.535-9.819,50.357-1.779,76.243,3.182c27.244,5.22,39.787-8.214,62.632-17.469c9.852-0.666,19.56-2.569,29.051-5.724
			c21.106,0.241,40.32,9.288,63.446,14.238c39.439,8.446,30.509-11.791,59.023-29.573c24.239-15.112,63.876-6.146,87.966,3.966
			c27.577,11.577,55.093,19.873,81.603,18.653c14.494-2.457,28.239-9.306,41.174-17.307c4.775-3.653,9.366-7.633,13.751-11.934
			c2.54-2.488,5.125-5.013,7.542-7.68C1009.184,78.566,1012.95,70.589,1010.884,66.353z"/>
	</g>
</g>
</svg>
