<?xml version="1.0" encoding="utf-8"?>
<!-- Generator: Adobe Illustrator 16.0.0, SVG Export Plug-In . SVG Version: 6.00 Build 0)  -->
<!DOCTYPE svg PUBLIC "-//W3C//DTD SVG 1.1//EN" "http://www.w3.org/Graphics/SVG/1.1/DTD/svg11.dtd">
<svg version="1.1" xmlns="http://www.w3.org/2000/svg" xmlns:xlink="http://www.w3.org/1999/xlink" x="0px" y="0px"
	 width="693.084px" height="145.523px" viewBox="0 0 693.084 145.523" enable-background="new 0 0 693.084 145.523"
	 xml:space="preserve">
<g>
	<g>
		<path fill="#FFFFFF" d="M539.47,100.197c25.972-1.388,50.662,0.803,74.771-13.268c3.515-2.048,7.018-3.68,10.535-5.048
			c2.51-1.703,5.173-3.125,9.381-4.055c3.754-0.83,7.737-0.909,11.663-1.243c1.588-0.228,3.172-0.438,4.764-0.622
			c0.16-0.029,0.325-0.038,0.486-0.072c15.278-3.131,37.593-6.591,40.994-20.375c7.828-31.771-31.125-35.889-57.839-30.391
			c-10.25,2.107-18.646,3.114-29.481,3.042c-14.077-0.099-12.433-1.894-21.736-7.753c-11.324-7.126-30.061-13.511-43.948-10.146
			c-14.908,3.611-17.524,14.688-37.814,11.271c-5.931-0.999-15.224-3.969-20.257-7.701c-5.06-3.749-5.477-9.91-12.923-12.244
			c-9.857-3.083-35.938-1.192-45.185,1.461c-10.428,2.999-16.324,11.687-25.986,15.785c-2.163,0.919-4.368,1.52-6.599,1.948
			c-4.835-0.923-9.724-1.493-14.707-1.452c-23.565,0.175-45.642,3.053-65.453-8.081c-9.006-5.069-15.781-7.685-26.527-8.477
			c-19.396-1.423-51.813-3.224-68.546,7.402c-3.223,2.039-5.703,4.437-8.041,6.885c-8.317-0.983-17.007-0.815-23.035,2.46
			c-4.388,2.383-7.109,9.641-11.629,13.538c-6.511,0.177-13.139-0.292-19.07-0.729c-11.206-0.838-22.861-4.146-34.681-2.046
			c-10.642,1.895-17.634,5.909-29.242,6.788c-16.346,1.242-32.753-1.533-49.313-0.945C22.36,36.768,3.817,39.186,0.672,55.675
			c-0.623,3.255-0.799,6.719-0.586,10.176c13.669,7.183,34.101,6.212,49.021,8.053c29.718,3.672,56.705,10.478,79.074,25.103
			c10.856,3.868,21.448,8.259,32.688,11.869c18.613,5.976,47.831,2.798,67.756,2.021c9.562-0.372,18.455,0.161,27.09,1.362
			c18.975-0.488,37.834,1.08,56.742,8.622c19.749,7.879,38.129,18.398,59.679,20.517c15.799,1.557,33.338,2.971,49.868,1.519
			c8.661-1.553,17.243-3.751,25.774-6.198c13.442-6.875,22.432-19.088,36.17-26.838C500.463,102.567,520.458,98.31,539.47,100.197z"
			/>
		<path fill="#E6EFFA" d="M539.47,100.197c25.972-1.388,50.662,0.803,74.771-13.268c3.515-2.048,7.018-3.68,10.535-5.048
			c2.51-1.703,5.173-3.125,9.381-4.055c3.754-0.83,7.737-0.909,11.663-1.243c1.588-0.228,3.172-0.438,4.764-0.622
			c0.16-0.029,0.325-0.038,0.486-0.072c15.278-3.131,37.593-6.591,40.994-20.375c2.333-9.464,0.491-16.46-3.922-21.494
			c-7.424,3.05-9.836,12.004-16.192,16.455c-6.982,4.896-27.267,5.233-35.968,4.78c-13.991-0.731-23.488-0.854-34.862,6.336
			c-6.29,3.976-5.532,8.507-15.686,6.74c-7.184-1.25-12.082-5.849-19.813-6.678c-17.85-1.913-26.916,9.122-41.283,11.524
			c-15.022,2.51-29.623-7.123-44.786,0.222c-14.584,7.067-12.883,24.226-32.036,16.417c-14.335-5.843-19.614-15.499-34.609-5.083
			c-5.87,4.082-8.172,9.67-15.311,11.486c-7.213,1.833-18.122,0.252-25.398-0.93c-25.925-4.217-44.886-26.262-72.209-23.391
			c-15.683,1.646-25.733,15.968-40.519,17.917C238.303,92.6,238.2,73.026,222.137,66.936c-16.134-6.114-32.409,6.936-47.084,8.834
			c-17.75,2.295-37.988-5.434-52.81-14.363c-24.542-14.778-49.291-0.4-76.762-7.405c-11.823-3.013-25.894-8.262-39.169-8.835
			c-2.781,2.644-4.791,6.046-5.639,10.51c-0.623,3.255-0.799,6.719-0.586,10.176c13.669,7.183,34.101,6.212,49.021,8.053
			c29.718,3.672,56.705,10.478,79.074,25.103c10.856,3.868,21.448,8.259,32.688,11.869c18.613,5.976,47.831,2.798,67.756,2.021
			c9.562-0.372,18.455,0.161,27.09,1.362c18.975-0.488,37.834,1.08,56.742,8.622c19.749,7.879,38.129,18.398,59.679,20.517
			c15.799,1.557,33.338,2.971,49.868,1.519c8.661-1.553,17.243-3.751,25.774-6.198c13.442-6.875,22.432-19.088,36.17-26.838
			C500.463,102.567,520.458,98.31,539.47,100.197z"/>
	</g>
</g>
</svg>
