<?xml version="1.0" encoding="utf-8"?>
<!-- Generator: Adobe Illustrator 16.0.0, SVG Export Plug-In . SVG Version: 6.00 Build 0)  -->
<!DOCTYPE svg PUBLIC "-//W3C//DTD SVG 1.1//EN" "http://www.w3.org/Graphics/SVG/1.1/DTD/svg11.dtd">
<svg version="1.1" xmlns="http://www.w3.org/2000/svg" xmlns:xlink="http://www.w3.org/1999/xlink" x="0px" y="0px"
	 width="1112.3px" height="269.874px" viewBox="0 0 1112.3 269.874" enable-background="new 0 0 1112.3 269.874"
	 xml:space="preserve">
<g>
	<g>
		<path fill="#FFFFFF" d="M1076.541,25.67c-17.791-5.568-38.106-2.487-55.418-8.174C1009.229,13.589,1006-1.986,977.957,0.211
			c-37.44,2.934-78.935,10.766-117.947,12.805c-46.24,2.417-75.602-6.352-118.784-11.776c-44.548-5.6-92.124,14.451-139.991,16.038
			c-21.543,0.712-52.88-3.233-72.414,7.027c-24.714,12.976-28.769,42.289-58.12,48.568c-53.542,11.449-74.305-49.955-125.456-51.35
			c-41.578-1.133-66.497,22.898-110.32,16.968c-44.951-6.083-78.252-1.946-120.031-4.231c-19.174-1.047-37.716-5.929-56.363-10.146
			c-11.889-2.687-23.734-5.179-35.835-6.693C15.608,16.53,3.54,13.396,0.659,22.456c-2.132,6.7,1.529,15.323,2.258,22.043
			c1.324,12.203,2.776,25.875,10.728,35.799c10.75,13.423,30.905,3.894,43.165,14.674c9.672,8.503,22.558,41.041,39.68,26.13
			c5.905-5.143,1.241-15.049,5.139-20.903c5.032-7.564,21.316-4.77,29.06-6.484c42.191-9.36,46.911,25.89,71.464,37.554
			c15.531,7.376,31.54,2.772,47.689,1.219c14.054-1.353,28.339-0.412,42.236,2.037c29.62,5.22,58.853,18.169,78.916,41.161
			c13.524,15.492,23.823,33.192,30.736,52.499c6.122,17.087,14.195,35.778,33.588,40.383c19.192,4.561,45.262-3.341,60.304-15.649
			c19.554-15.999,28.108-43.726,44.071-63.071c32.159-38.99,75.887-23.968,119.71-41.067c33.94-13.246,39.242-53.206,72.288-63.89
			c36.544-11.814,81.138,20.944,122.391,13.26c17.281-3.222,29.315-14.894,51.787-17.188c16.517-1.688,34.122,0,50.746,0
			c40.135,0,89.34,19.19,127.453,8.493C1127.416,77.29,1117.636,38.531,1076.541,25.67z"/>
		<path fill="#E6EFFA" d="M1084.068,89.456c21.326-5.986,29.767-18.409,27.975-31.018c-0.266,0.273-0.496,0.543-0.785,0.817
			c-16.385,16.106-35.865,1.934-52.172-1.212c-17.252-3.33-36.016,1.393-53.496-0.432c-22.401-2.338-38.371-17.663-61.823-19.155
			c-22.604-1.438-37.472,8.351-59.698,8.542c-26.451,0.225-52.963-5.332-78.55,1.06c-28.048,7.006-40.367,3.618-66.99-1.158
			c-25.646-4.597-39.396,2.822-51.997,22.806c-15.479,24.543-23.514,23.993-54.622,23.993c-11.677,0-30.161-3.306-40.964,2.446
			c-9.951,5.294-13.307,20.218-21.054,27.74c-13.778,13.361-34.542,24.022-55.258,12.786c-16.144-8.758-26.68-25.789-50.528-17.649
			c-9.806,3.348-13.312,14.631-27.994,17.176c-9.334,1.622-24.571,1.622-34.051,0.069c-25.521-4.177-37.69-18.37-58.791-31.541
			c-18.521-11.554-41.719-14.861-65.284-10.547c-19.696,3.607-37.747,14.193-57.917,3.919C209.36,92.64,203.926,81.375,192.53,77.08
			c-9.303-3.508-21.639-0.668-31.431-2.443c-23.773-4.309-41.279-20.334-63.722-23.491c-19.916-2.805-36.828,9.256-56.192,1.857
			c-8.212-3.136-13.401-12.102-22.196-15.554c-5.958-2.332-11.887-3.017-18.106-3.196c0.735,3.57,1.696,7.116,2.034,10.246
			c1.324,12.203,2.776,25.875,10.728,35.799c10.75,13.423,30.905,3.894,43.165,14.674c9.672,8.503,22.558,41.041,39.68,26.13
			c5.905-5.143,1.241-15.049,5.139-20.903c5.032-7.564,21.316-4.77,29.06-6.484c42.191-9.36,46.911,25.89,71.464,37.554
			c15.531,7.376,31.54,2.772,47.689,1.219c14.054-1.353,28.339-0.412,42.236,2.037c29.62,5.22,58.853,18.169,78.916,41.161
			c13.524,15.492,23.823,33.192,30.736,52.499c6.122,17.087,14.195,35.778,33.588,40.383c19.192,4.561,45.262-3.341,60.304-15.649
			c19.554-15.999,28.108-43.726,44.071-63.071c32.159-38.99,75.887-23.968,119.71-41.067c33.94-13.246,39.242-53.206,72.288-63.89
			c36.544-11.814,81.138,20.944,122.391,13.26c17.281-3.222,29.315-14.894,51.787-17.188c16.517-1.688,34.122,0,50.746,0
			C996.75,80.963,1045.955,100.153,1084.068,89.456z"/>
	</g>
</g>
</svg>
