<?xml version="1.0" encoding="utf-8"?>
<!-- Generator: Adobe Illustrator 16.0.0, SVG Export Plug-In . SVG Version: 6.00 Build 0)  -->
<!DOCTYPE svg PUBLIC "-//W3C//DTD SVG 1.1//EN" "http://www.w3.org/Graphics/SVG/1.1/DTD/svg11.dtd">
<svg version="1.1" xmlns="http://www.w3.org/2000/svg" xmlns:xlink="http://www.w3.org/1999/xlink" x="0px" y="0px"
	 width="1116.739px" height="345.81px" viewBox="0 0 1116.739 345.81" enable-background="new 0 0 1116.739 345.81"
	 xml:space="preserve">
<g>
	<g>
		<path fill="#FFFFFF" d="M1116.739,65.771C1110.266,4.8,941.828,76.208,902.042,45.348c-16.401-12.722-17.446-30.94-40.669-39.046
			c-16.696-5.826-57.59-8.68-75.633-3.859c-33.596,8.962-60.027,37.776-96.991,39.627c-35.313,1.776-57.144-24.618-95.855-21.253
			c-33.726,2.933-60.308,8.439-89.387,23.469c-29.05,15.012-46.86,35.636-81.427,34.255c-31.36-1.255-58.621-18.908-85.669-27.416
			c-35.688-11.224-70.089-18.113-108.835-15.12c-12.868,0.994-24.128,3.747-34.839,7.152c-19.952,9.968-42.324,18.259-63.329,21.949
			c-25.038,4.4-50.854-3.369-76.029-4.526c-8.861,0.467-17.771,1.011-26.455,2.503c-1.111,0.192-40.799,7.759-21.767,18.572
			C19.303,89.7,36.405,94.337,48.28,106.02c12.556,12.345,17.255,27.435,20.854,44.322c3.87,18.157,7.762,36.018,13.641,53.491
			c13.555,22.448,37.696,47.144,61.936,54.014c31.44,8.912,72.388-7.427,96.941-24.981c22.622-16.167,38.059-58.015,64.248-68.8
			c40.926-16.857,54.535,19.127,83.771,30.238c43.288,16.445,43.664-29.191,68.953-36.829
			c64.064-19.361,79.324,95.516,127.445,106.374c68.584,15.481,92.005-80.017,148.259-82.009
			c36.058-1.279,35.593,30.831,67.507,36.452c35.433,6.245,71.631-6.994,87.665-38.658c16.17-31.941,4.716-56.578,48.403-43.139
			c33.11,10.182,36.007,31.978,60.599,53.694c29.544,26.092,62.83,11.049,71.706-25.23c6.471-26.469-5.809-57.607,5.596-82.933
			C1090.218,78.656,1103.568,72.949,1116.739,65.771z"/>
		<path fill="#E6EFFA" d="M1116.739,65.771c-1.136-10.743-7.384-17.313-16.985-21.121c-0.906,0.78-1.813,1.546-2.674,2.384
			c-15.645,15.267-29.58,24.275-53.285,27.905c0.713,3.45-1.334,8.588-0.635,12.049c-6.752-0.489-17.642-0.976-23.613,2.757
			c-8.46,5.279-6.438,17.72-12.635,22.667c-17.506,13.961-34.667-2.425-50.932-6.033c-17.937-3.98-47.548-1.45-63.656,4.288
			c-14.282,5.087-25.425,18.148-41.961,16.975c-20.99-1.492-32.653-20.377-56.902-3.762c-15.961,10.933-2.52,14.463-26.599,16.5
			c-12.104,1.024-29.835,0.917-40.839-3.67c-20.71-8.637-32.189-20.369-58.189-17.666c-24.41,2.532-42.871,17.491-57.994,36.137
			c-15.043,18.547-20.57,25.973-47.777,21.287c-18.573-3.201-34.757-17.729-51.422-27.02c-18.657-10.407-32.031-20.001-55.15-17.552
			c-23.771,2.519-38.176,19.249-61.606,21.22c-46.189,3.89-70.886-51.469-118.576-31.368c-18.893,7.963-28.864,23.877-51.727,16.565
			c-24.327-7.788-28.151-19.258-54.829-2.701c-18.905,11.738-40.211,26.981-59.954,1.005c-4.943-6.502-1.833-20.194-9.374-26.106
			c-5.85-4.598-19.118-0.543-28.264-5.754c-18.667-10.627-17.291-23.75-42.411-25.94c-8.878-0.774-16.743,0.644-24.33,2.382
			c0.244,0.154,0.468,0.307,0.738,0.46C19.303,89.7,36.405,94.337,48.28,106.02c12.556,12.345,17.255,27.435,20.854,44.322
			c2.281,10.72,4.625,21.315,7.329,31.807v99.986c0,4.129,3.349,7.48,7.479,7.48c4.129,0,7.473-3.351,7.473-7.48v-65.61
			c3.575,4.705,7.534,9.329,11.76,13.721v108.087c0,4.128,3.343,7.479,7.476,7.479c4.128,0,7.472-3.35,7.472-7.479v-94.613
			c8.485,6.5,17.525,11.561,26.587,14.127c31.44,8.912,72.388-7.427,96.941-24.981c22.622-16.167,38.059-58.015,64.248-68.8
			c40.926-16.857,54.535,19.127,83.771,30.238c43.288,16.445,43.664-29.191,68.953-36.829
			c64.064-19.361,79.324,95.516,127.445,106.374c21.667,4.893,38.826-1.309,53.94-12.126v32.259c0,4.128,3.345,7.48,7.474,7.48
			c4.13,0,7.469-3.352,7.469-7.48v-44.792c5.181-4.897,10.203-10.111,15.178-15.342v93.647c0,4.128,3.35,7.478,7.48,7.478
			c4.129,0,7.473-3.349,7.473-7.478V208.446c6.419-6.279,12.977-12.013,19.93-16.552v86.262c0,4.131,3.35,7.482,7.479,7.482
			c4.13,0,7.479-3.351,7.479-7.482v-93.658c4.563-1.531,9.328-2.484,14.358-2.66c36.058-1.279,35.593,30.831,67.507,36.452
			c35.433,6.245,71.631-6.994,87.665-38.658c16.17-31.941,4.716-56.578,48.403-43.139c33.11,10.182,36.007,31.978,60.599,53.694
			c2.271,2.005,4.563,3.738,6.872,5.269v122.038c0,4.128,3.343,7.478,7.475,7.478c4.131,0,7.474-3.349,7.474-7.478V202.195
			c5.528,1.352,10.942,1.442,16.079,0.405v81.38c0,4.128,3.35,7.48,7.475,7.48c4.135,0,7.474-3.352,7.474-7.48V195.8
			c4.419-3.325,8.325-7.685,11.554-12.947v27.123c0,4.13,3.344,7.48,7.479,7.48c4.13,0,7.475-3.351,7.475-7.48V81.452
			C1091.473,78.036,1104.199,72.599,1116.739,65.771z"/>
	</g>
</g>
</svg>
