<?xml version="1.0" encoding="utf-8"?>
<!-- Generator: Adobe Illustrator 16.0.0, SVG Export Plug-In . SVG Version: 6.00 Build 0)  -->
<!DOCTYPE svg PUBLIC "-//W3C//DTD SVG 1.1//EN" "http://www.w3.org/Graphics/SVG/1.1/DTD/svg11.dtd">
<svg version="1.1" xmlns="http://www.w3.org/2000/svg" xmlns:xlink="http://www.w3.org/1999/xlink" x="0px" y="0px"
	 width="278.182px" height="303.704px" viewBox="0 0 278.182 303.704" enable-background="new 0 0 278.182 303.704"
	 xml:space="preserve">
<g>
	<path fill="#FFFFFF" d="M29.084,42.922c-27.957,45.722-48.291,174.103,0,214.346c48.288,40.242,96.578,0.833,138.832,10.479
		c42.255,9.642,134.812,28.757,103.625-7.46c-31.189-36.217-86.366-57.509-82.496-98.085
		C201.114,35.605,91.127-58.557,29.084,42.922z"/>
	<g>
		<path fill="#E6EFFA" d="M189.801,135.931c-0.145-4.077-0.412-8.105-0.797-12.072C188.658,128.077,188.965,132.087,189.801,135.931
			z"/>
		<path fill="#E6EFFA" d="M271.541,260.287c2.018,19.867-80.639-26.193-103.627-31.441c-28.677-6.542-49.115-10.381-92.49,7.915
			c-25.548,10.782-28.225-15.431-46.341-18.389c-22.413-3.66-25.898-40.599-28.309-70.087c-3.2,44.151,3.438,88.256,28.309,108.983
			c48.289,40.242,96.579,0.833,138.831,10.479C210.171,277.388,302.723,296.503,271.541,260.287
			C266.104,253.979,277.984,265.869,271.541,260.287z"/>
	</g>
	<path fill="#CBE0FA" d="M5.193,214.879c0,0,0.502,29.813,11.57,37.862c11.063,8.047,12.32,0.505,13.327,9.558
		c1.005,9.053-1.76,20.12,1.76,21.63c3.521,1.508-1.262-17.858,5.031-15.344c6.288,2.514-6.54,26.911,3.52,31.188
		c10.059,4.276,0-25.655,7.797-27.162c7.796-1.512,4.027,9.682,14.335,8.867c10.316-0.819,5.533-5.85,23.893-4.591
		c18.363,1.256,18.613,11.567,49.801,5.784c31.188-5.784,44.77-13.832,65.143-2.767c20.369,11.066,19.614,9.054,32.695,8.047
		c13.078-1.005,9.055,3.773,12.574,9.559c3.52,5.784,10.062,9.133,13.081,2.678c3.019-6.452-2.265-14.751,5.278-15.253
		c7.547-0.504,14.867-4.025,12.843-11.572c-2.026-7.545-13.096,9.055-30.951,2.515c-17.856-6.536-21.123-6.789-31.183-4.526
		c-10.062,2.264-5.646-4.023-26.843-13.582c-21.201-9.558-30.254,12.324-51.633,5.281c-21.374-7.041-23.667-13.649-53.823-1.004
		c-30.152,12.643-23.389,8.55-29.677,3.268c-6.286-5.28-12.075,3.021-12.827-4.022c-0.754-7.044,0-16.095-11.066-16.095
		S8.467,229.838,5.193,214.879z"/>
</g>
</svg>
