<?xml version="1.0" encoding="utf-8"?>
<!-- Generator: Adobe Illustrator 16.0.0, SVG Export Plug-In . SVG Version: 6.00 Build 0)  -->
<!DOCTYPE svg PUBLIC "-//W3C//DTD SVG 1.1//EN" "http://www.w3.org/Graphics/SVG/1.1/DTD/svg11.dtd">
<svg version="1.1" xmlns="http://www.w3.org/2000/svg" xmlns:xlink="http://www.w3.org/1999/xlink" x="0px" y="0px"
	 width="1706.078px" height="285.542px" viewBox="0 0 1706.078 285.542" enable-background="new 0 0 1706.078 285.542"
	 xml:space="preserve">
<g>
	<path fill="#FFFFFF" d="M17.149,104.081c-75.557,44.895,105.563,111.671,405.356,67.405
		c299.801-44.265,358.803,32.191,470.149,40.24c111.339,8.049,148.416-34.874,182.194-40.24
		c33.777-5.366,36.454,29.511,82.065,21.464c45.609-8.05,104.63-52.654,155.601-41.083
		c50.973,11.571,303.149,113.847,367.539,61.874c64.385-51.973,2.677-125.422-112.676-168.343
		c-115.356-42.926-360.621-69.753-570.652-13.416C786.693,88.32,781.076,74.064,672.398,42.714
		C505.004-5.577,318.127,43.497,193.133,99.052C93.535,143.318,44.24,87.985,17.149,104.081z"/>
	<path fill="#E6EFFA" d="M1680.055,213.733c-64.39,51.993-316.582-50.302-367.529-61.891
		c-50.98-11.549-110.018,33.038-155.61,41.088c-45.595,8.048-48.288-26.803-82.05-21.45c-33.806,5.352-70.871,48.29-182.213,40.241
		c-111.35-8.048-170.346-84.506-470.146-40.241c-299.793,44.265-480.924-22.495-405.352-67.404
		c3.422-2.052,7.244-2.937,11.473-3.018c-4.365,11.18,4.433,19.597,22.943,25.57c16.063,5.183,18.826,35.711,70.133,32.282
		c31.863-2.127,92.837,15.794,133.806,10.059c59.743-8.355,81.514-28.047,144.866-41.246c24.146-5.03,36.207,9.2,46.779,3.016
		c32.701-19.113,68.65,0.846,86.017-0.502c98.097-7.619,188.37,25.526,236.087,32.102c59.687,8.229,68.523-8.224,123.395-4.26
		c39.296,2.842,74.352,16.856,98.266,10.89c43.85-10.939,62.072-47.668,83.947-51.133c33.762-5.39,36.455,29.5,82.05,21.45
		c19.06-3.364,49.698,8.43,72.431,0.512c44.771-15.595,27.169-42.496,83.18-41.598c15.875,0.254,46.607,39.469,88.353,52.662
		c42.425,13.403,96.101,0.866,142.75,11.448c28.576,6.483,46.915,30.275,73.044,32.313c27.389,2.137,40.053-27.925,52.819-38.227
		c8.37-6.762,32.989-9.258,29.437-17.553C1712.121,165.001,1707.738,191.358,1680.055,213.733z"/>
	<path fill="#CBE0FA" d="M5.778,138.988c0,0,6.954,8.853,21.501,15.09c14.546,6.239,14.949,12.881,14.442,21.431
		c-0.5,8.553-8.305,22.636,0.12,26.158c8.431,3.522,5.918-22.638,14.973-26.661c9.055-4.024,19.619,0,21.627,5.534
		c2.016,5.534,8.05,11.066,13.581,7.546c5.537-3.522,9.057-11.57,25.154-8.553c0,0,14.919,2.684,20.285,7.377
		c5.366,4.696,18.112,8.054,37.225,2.351c19.115-5.704,34.208,1.34,36.892,3.688c2.681,2.346,3.012,8.383,0,11.402
		c-3.02,3.018-3.771,9.388,2.141,9.724c5.907,0.337,8.591-4.026,7.919-13.415c-0.675-9.39,4.697-11.064,10.064-10.395
		c5.36,0.671,2.005,12.405,7.373,12.405c5.366,0-1.673-12.07,4.696-13.076c6.367-1.006,8.379,3.016,28.834,5.028
		c20.459,2.012,13.756-4.357,26.498-5.362c12.74-1.007,8.713,11.4,14.25,10.897c5.532-0.503,6.538-2.516,6.792-9.811
		c0.249-7.291,13.835-8.298,15.089-3.016c1.258,5.28,12.326,5.032,13.082-0.756c0.752-5.783,11.064-7.292,15.84-3.27
		c4.779,4.026,13.33,1.761,16.854-1.256c3.519-3.02,17.101-6.037,26.655-3.521c9.562,2.514,21.633,1.76,29.428-4.025
		c7.799-5.783,42.762-11.57,56.676-7.209c13.916,4.361,19.116,3.187,24.98-0.67c5.873-3.857,14.76-7.21,18.949-4.696
		c4.191,2.516,2.684,3.86,4.359,5.702c1.678,1.843,9.097,5.365,11.615-2.81c2.512-8.175,12.949-5.281,14.58-3.269
		c1.639,2.012,4.783,4.024,7.676,2.641c2.895-1.384,8.551-7.169,16.976-3.522c8.425,3.647,9.933,2.138,24.395,1.257
		c14.462-0.881,19.369-1.58,23.646,1.348c4.272,2.927,19.237,8.964,49.041,5.569c29.806-3.396,84.298,24.104,92.347,32.151
		c8.049,8.048,13.75,12.743,26.826,8.719c13.082-4.023,16.265,0.037,17.273,4.377c1.003,4.338-6.039,12.818-0.508,14.281
		c5.537,1.463,5.531-3.066,4.697-7.09c-0.838-4.024-1.679-12.406,5.871-11.233c7.543,1.172,4.695,4.527,11.568,6.706
		c6.867,2.179,7.873-8.552,14.587-6.54c6.709,2.014,10.565,18.279,38.731,12.912c28.17-5.366,35.213-9.723,45.27-5.699
		c10.063,4.023,17.781,2.012,27.502-6.373c9.723-8.386,28.508-2.682,38.564-7.712c10.062-5.029,23.469-20.456,44.932-21.799
		c21.467-1.342,25.152-9.724,31.865-7.043c6.707,2.682,9.721,4.551,10.057,9.318c0.335,4.769,4.195,10.135,10.063,10.135
		c5.865,0,7.544,5.364,8.045,9.053c0.506,3.69-3.019,10.899,0,14.084c3.019,3.186,5.869-0.002,5.869-10.229
		c0-10.229,4.527-9.891,9.725-8.382c5.201,1.509,19.867,14.252,40.492,4.443c20.625-9.81,15.095-17.103,22.389-17.103
		c7.293,0,8.549,4.778,13.83,0.251c5.283-4.527,1.764-10.564,7.545-10.814c5.787-0.253,16.689,6.287,28.589-3.271
		c11.904-9.556,17.946-17.268,30.683-15.257c12.745,2.011,8.549,7.882,11.232,11.569c2.689,3.688,1.848-5.456,4.531-11.904
		c2.683-6.449,12.324-7.041,15.258-0.672c2.936,6.37,6.037,7.378,9.223,6.537c3.184-0.835,7.711-5.365,11.652-3.438
		c3.941,1.932,3.269,6.04,10.813,5.535c7.546-0.503,9.063-0.75,11.737,2.181c2.684,2.934,4.61,2.601,7.212,2.769
		c2.602,0.166,6.451-0.924,7.712,3.688c1.258,4.611,22.383,27.917,77.465,24.647c55.08-3.27,0.672,0,0.672,0
		s9.721-1.679,13.078,5.029c3.357,6.709,4.036,12.076,10.904,10.735c6.874-1.343-5.368-9.059,0.834-9.225
		c6.204-0.165,16.6,1.34,13.077,11.57c-3.52,10.229,19.286,15.594,21.3,4.864c2.01-10.731,44.51,3.185,47.028,10.226
		c2.513,7.043-0.506,23.643,2.763,27.166c3.271,3.52,2.012-14.336,4.781-23.141c2.764-8.801,14.838-5.531,19.111-3.018
		c4.279,2.517-1.506,56.591,5.533,53.572c7.042-3.017-2.014-49.295,10.566-51.56c12.577-2.264,16.351,9.054,28.421,4.025
		c12.069-5.031,22.132-13.08,39.741-4.779c17.604,8.3,45.561-23.086,43.902-58.073c0,0-5.674,27.137-26.551,31.163
		c-20.876,4.022-30.182,0-35.713,9.305c-5.535,9.305-28.674,15.593-41.502,6.036c-12.826-9.558-35.078-21.975-79.808-19.199
		c-44.735,2.779-29.177-2.345-37.896-7.713c-8.723-5.366-33.875,4.696-42.258-7.713c-8.379-12.407-38.561-4.68-49.963-23.634
		c-11.399-18.953-27.816-12.978-46.276-10.233c-18.464,2.747-21.462-3.69-32.53-11.738c-11.064-8.048-24.144-4.695-41.584,7.379
		c-17.437,12.072-23.561-1.092-48.459,13.496s-46.026,23.389-65.894,12.827c-19.869-10.563-25.905-13.33-41.249-7.544
		c-15.34,5.783-12.071-7.293-26.658-10.817c-14.588-3.519-32.86,0.504-52.148,17.355c-19.277,16.852-32.609,21.881-44.936,18.109
		c-12.324-3.773-37.725-4.275-54.324,9.055c-16.599,13.33-36.468,10.562-47.031,0.754c-10.568-9.809-15.343-25.906-45.525-13.583
		c-30.18,12.325-36.722-0.755-43.01-5.28c-6.285-4.528-24.896-18.276-63.799-14.588c-38.902,3.688-37.219-9.222-44.266-10.563
		c-7.04-1.341-28.336-12.576-69.244-3.184c-40.914,9.388-48.459-19.453-73.444-7.883c-24.983,11.569-32.358,12.24-40.909,7.544
		c-8.557-4.692-23.479-11.234-50.977,0.671c-27.497,11.907-39.066,18.948-68.742,15.762c-29.68-3.185-34.791-8.132-74.031,5.198
		c-39.232,13.331-33.952,7.044-44.26,6.541c-10.313-0.504-11.07,3.27-19.371,1.256c-8.3-2.011-12.574-12.324-32.528-5.618
		c-19.954,6.708-17.435,4.694-25.485,1.008c-8.049-3.69-23.303,9.895-44.262,1.51c-20.961-8.386-22.471-13.916-37.561-10.06
		c-15.088,3.854-8.387,1.169-14.757-1.176c-6.37-2.346-6.539,6.036-11.065,3.021c-4.531-3.021-9.722-11.737-13.914-10.398
		c-4.191,1.342-25.318,4.528-29.85-9.725C39.041,138.12,17.513,148.211,5.778,138.988"/>
</g>
</svg>
