<?xml version="1.0" encoding="utf-8"?>
<!-- Generator: Adobe Illustrator 16.0.0, SVG Export Plug-In . SVG Version: 6.00 Build 0)  -->
<!DOCTYPE svg PUBLIC "-//W3C//DTD SVG 1.1//EN" "http://www.w3.org/Graphics/SVG/1.1/DTD/svg11.dtd">
<svg version="1.1" xmlns="http://www.w3.org/2000/svg" xmlns:xlink="http://www.w3.org/1999/xlink" x="0px" y="0px"
	 width="676.425px" height="178.918px" viewBox="0 0 676.425 178.918" enable-background="new 0 0 676.425 178.918"
	 xml:space="preserve">
<g>
	<g>
		<path fill="#FFFFFF" d="M668.91,74.467c-11.274-7.938-38.101-14.376-56.408-15.655c-24.42-1.706-49.417,4.25-73.45,1.355
			c-27.767-3.344-29.546-14.613-43.433-26.331c-22.292-18.801-66.458-12.889-104.303-14.043
			c-39.226-1.204-48.438-19.635-87.075-19.736c-31.068-0.075-45.057-1.125-67.299,10.321
			c-20.067,10.325-31.748,23.044-50.291,34.104c-20.48,12.219-51.862,14.637-76.369,23.707c-20.012,7.408-38.894,18.35-62.49,21.692
			c-24.049,3.41-52.403-4.087-47.16,15.583c2.366,8.866,19.051,15.125,37.243,18.117c36.656,9.047,26.949,39.238,79.81,32.764
			c52.52-6.437,76.377-30.797,135.759-17.793c19.454,4.256,36.425,12.74,52.301,19.618c23.34,10.121,30.637,9.161,58.45,0.772
			c19.674-5.933,32.622-19.804,54.694-21.39c17.108-1.229,48.398,1.938,65.178,4.402c47.465,6.968,72.553,49.526,129.287,33.305
			c65.666-18.771,11.548-45.357,33.417-72.382C655.569,91.999,691.918,90.659,668.91,74.467z"/>
		<path fill="#E6EFFA" d="M652.809,66.995c3.686,11.998,5.038,15.164-23.292,21.209c-11.478,2.455-13.543-0.729-22.292,5.284
			c-6.524,4.484,0.632,11.287-13.153,14.74c-10.376,2.599-19.621-1.656-28.872,2.623c-10.974,5.073,5.414,9.637-15.481,10.708
			c-22.039,1.124-28.151-15.52-50.917-13.415c-13.017,1.201-13.886,6.645-27.222,6.839c-8.62,0.123-30.704-5.949-37.73-8.473
			c-10.514-3.768-37.102-22.203-46.463-6.515c-21.845,2.859-28.389-8.976-50.412-2.472c-15.677,4.632-22.532,12.333-42.433,7.676
			c-19.594-4.584-20.409-17.709-40.359-21.022c-23.904-3.969-26.504,5.161-41.182,10.967c-18.313,7.245-28.185,1.729-44.962-6.967
			c-7.63-3.956-8.594-8.03-20.447-8.037c-13.148-0.01-12.697,7.765-22.619,10.872c-16.786,5.251-45.288,2.44-47.776-8.242
			c-0.067-0.303-0.041-0.629-0.052-0.941c-9.19,3.54-18.794,6.556-29.351,8.051c-24.049,3.41-52.403-4.087-47.16,15.583
			c2.366,8.866,19.051,15.125,37.243,18.117c36.656,9.047,26.949,39.238,79.81,32.764c52.52-6.437,76.377-30.797,135.759-17.793
			c19.454,4.256,36.425,12.74,52.301,19.618c23.34,10.121,30.637,9.161,58.45,0.772c19.674-5.933,32.622-19.804,54.694-21.39
			c17.108-1.229,48.398,1.938,65.178,4.402c47.465,6.968,72.553,49.526,129.287,33.305c65.666-18.771,11.548-45.357,33.417-72.382
			c8.798-10.877,45.147-12.217,22.14-28.41C665.056,71.75,659.348,69.215,652.809,66.995z"/>
	</g>
</g>
</svg>
