<?xml version="1.0" encoding="utf-8"?>
<!-- Generator: Adobe Illustrator 16.0.0, SVG Export Plug-In . SVG Version: 6.00 Build 0)  -->
<!DOCTYPE svg PUBLIC "-//W3C//DTD SVG 1.1//EN" "http://www.w3.org/Graphics/SVG/1.1/DTD/svg11.dtd">
<svg version="1.1" xmlns="http://www.w3.org/2000/svg" xmlns:xlink="http://www.w3.org/1999/xlink" x="0px" y="0px"
	 width="1675.1px" height="319.118px" viewBox="0 0 1675.1 319.118" enable-background="new 0 0 1675.1 319.118"
	 xml:space="preserve">
<g>
	<path fill="#FFFFFF" d="M1667.207,105.374c-15.929,20-56.057,28.974-120.325,34.405c-69.208,5.875-194.478,43.182-291.06,87.447
		c-96.576,44.265-133.359,82.494-421.813,18.108c-288.453-64.386-294.484-20.119-489.659,14.083
		c-195.171,34.207-129.416-98.957-181.769-85.835C59.283,199.458,21.577,177.245,7.855,156.758
		c-8.33-12.351-7.85-24.101-7.85-24.101S14.373,19.983,129.063,1.873c114.687-18.109,264.387,100.604,525.551,120.726
		C915.777,142.72,945.279,0.023,1135.102,66.337c77.299,27.003,102.693,54.248,189.133,50.223
		c158.265-7.364,325.354-143.983,348.774-50.301C1677.109,82.635,1675.178,95.391,1667.207,105.374z"/>
	<path fill="#E6EFFA" d="M1546.893,139.53c-69.214,5.838-194.488,43.144-291.07,87.408
		c-96.576,44.267-133.359,82.496-421.808,18.108c-288.448-64.383-294.486-20.119-489.657,14.086
		c-195.171,34.204-129.417-98.957-181.775-85.836C-3.293,214.865,0.011,132.372,0.011,132.372s1.567-12.354,7.845-29.542
		c-1.731,26.586,47.893,72.42,104.234,46.263c19.205-8.917,21.504-22.176,50.492-29.438c46.986-11.773-1.156,94.264,129.555,91.421
		c14.934-0.328,58.991,14.463,79.006,10.956c138.372-24.25,162.686-52.392,271.127-49.295c21.411,0.61,51.416-6.667,80.401-2.461
		c31.267,4.535,71.317,33.98,114.878,43.707c68.112,15.206,118.653,2.111,162.807,7.143
		c142.813,16.276,180.312-5.521,254.084-39.335c34.978-16.03,105.395-24.181,143.864-37.224
		c67.776-22.977,104.441-54.97,148.589-58.714c64.268-5.433,126.563-10.953,120.324-34.407c2.409,4.063,4.387,8.853,5.792,14.528
		C1685.324,115.268,1643.148,131.365,1546.893,139.53z"/>
	<path fill="#CBE0FA" d="M0.817,139.791c0,0-4.927,23.72,13.18,38.81c18.112,15.094,24.815,9.39,27.163,25.153
		c2.352,15.762-4.359,23.477,6.037,26.494c10.397,3.018,12.746-5.363,12.411-24.144c-0.341-18.783,16.435-20.46,22.132-12.745
		c5.701,7.712,10.727,13.073,17.775,10.395c7.038-2.682,3.685-22.118,16.76-18.435c13.082,3.682,8.053,15.75,25.491,11.393
		c17.436-4.359,15.423-24.817,26.827-17.105c11.401,7.715,7.715,19.457,9.727,32.868c2.008,13.412,7.042,30.518,26.157,40.579
		c19.114,10.062,20.454,21.121,20.454,31.521c0,10.399-5.025,33.2,9.727,28.169c14.753-5.032-13.414-40.572,10.061-41.914
		c23.469-1.346,17.771,16.09,46.277,10.727c28.506-5.366,25.822-21.465,70.42-17.102c44.605,4.362,43.598,2.348,68.077-14.42
		c24.479-16.769,124.243-41.584,177.563-26.996c53.318,14.586,44.268,3.15,63.381,3.588c19.117,0.435,8.551,9.991,31.187,8.484
		c22.638-1.511,64.39-9.559,97.585,11.067c33.199,20.623,32.193,35.625,76.961,33.405c44.77-2.22,46.281-11.777,67.907-4.234
		c21.632,7.547-1.506,44.269,20.121,43.765c21.632-0.501-11.569-48.289,19.618-42.254c31.186,6.037,12.578,29.678,34.711,26.663
		c22.131-3.02,9.556-16.602,24.144-17.103c14.587-0.503,69.918,29.677,109.657,3.522c39.738-26.158,69.418-49.297,88.026-38.734
		c18.614,10.563,15.092-7.547,26.667,3.521c11.563,11.066-6.545,21.543,4.52,24.855c11.069,3.313,7.549-4.234,4.529-20.33
		c-3.018-16.096,6.039-48.792,17.606-39.236c11.57,9.561-1.508,22.135,7.546,21.129c9.053-1.005-5.031-21.63,4.024-26.661
		c9.054-5.029,14.082,3.019,25.652-6.539c11.573-9.557,24.147-27.163,106.136-29.679c81.994-2.516,52.818-26.66,71.938-25.654
		c19.113,1.006,13.582,11.066,13.582,19.114c0,8.051,2.006,14.588,8.548,11.068c6.539-3.521-6.542-20.122,0-28.17
		c6.539-8.048,12.576-12.575,20.624-7.545c8.047,5.03,14.584,10.564,34.205-1.508c19.617-12.072,29.68-11.569,38.733-8.048
		c9.052,3.52,30.179,3.019,39.233-15.594c9.056-18.611,11.197-35.211,11.197-35.211s-14.717,32.695-46.91,27.665
		c-32.193-5.029-33.699-0.502-42.254,8.553c-8.553,9.053-16.096,14.587-25.152,11.067c-9.053-3.521-22.131-13.583-32.693,1.508
		c-10.564,15.092-22.139-13.582-58.352,9.054c-36.219,22.636-41.248,19.978-63.381,20.806c-22.135,0.824-39.236-5.212-58.854,12.896
		c-19.615,18.111-17.104,22.134-32.695,21.63c-15.596-0.501-16.768-1.171-24.48,6.88c-7.707,8.047-9.384,7.041-21.793,7.041
		c-12.408,0-21.801,18.112-30.853,9.724c-9.054-8.383-61.702,53.656-121.4,35.546c-59.69-18.107-74.444,20.118-97.251,18.105
		c-22.802-2.012-26.492-25.823-44.934-26.157c-18.443-0.333-18.111,14.757-35.549,8.72c-17.438-6.036-37.559-29.843-76.121-18.443
		c-38.566,11.401-51.643-10.731-80.567-21.297c-28.925-10.561-50.556,9.893-72.351-1.174
		c-21.797-11.066-29.506-27.492-61.033-18.776c-31.523,8.717-70.76,10.404-107.311,2.855
		c-36.553-7.552-88.195,27.666-119.383,31.688c-31.186,4.024-36.214,0-48.96,7.043c-12.745,7.042-18.448,11.062-30.852,9.72
		c-12.406-1.34-23.808-1.342-36.556,9.057c-12.739,10.399-27.496,2.011-30.85-7.042c-3.354-9.057-18.779-17.106-33.201-13.417
		c-14.416,3.688-37.557-9.384-38.226-26.825c-0.673-17.44-4.36-21.803-13.415-27.502c-9.051-5.696-0.334-27.829-16.096-31.853
		c-15.762-4.026-12.494,24.981-35.631,14.919c-23.141-10.059-32.946,14.839-49.801,9.558c-16.848-5.281-40.745,3.522-50.302-8.802
		C28.335,157.141,11.785,167.209,0.817,139.791z"/>
</g>
</svg>
