<?xml version="1.0" encoding="utf-8"?>
<!-- Generator: Adobe Illustrator 16.0.0, SVG Export Plug-In . SVG Version: 6.00 Build 0)  -->
<!DOCTYPE svg PUBLIC "-//W3C//DTD SVG 1.1//EN" "http://www.w3.org/Graphics/SVG/1.1/DTD/svg11.dtd">
<svg version="1.1" xmlns="http://www.w3.org/2000/svg" xmlns:xlink="http://www.w3.org/1999/xlink" x="0px" y="0px"
	 width="1737.333px" height="387.014px" viewBox="0 0 1737.333 387.014" enable-background="new 0 0 1737.333 387.014"
	 xml:space="preserve">
<g>
	<g>
		<path fill="#FFFFFF" d="M1639.236,28.256c-42.214-4.232-71.534,14.298-114.974-4.824c-46.991-20.688-89.122-5.583-136.981-17.958
			c-41.725-10.79-53.701-5.471-92.244,14.563c-29.476,15.321-53.436-2.421-85.573,0.664c-33.14,3.18-53.395,6.369-84.97-7.751
			c-28.882-12.924-60.58-13.422-87.612-3.033c-15.717,6.041-15.262,7.566-33.115,8.116c-10.883,0.332-22.788-1.513-33.507,0.129
			c-27.816,4.261-46.941,15.738-78.456,12.672c-28.562-2.777-59.097-5.059-90.811-5.059c-33.071,0-66.147,0-99.219,0
			c-30.824,0-55.165-8.637-84.148-12.747C557.8,4.544,512.892,31.198,455.697,20.57c-27.335-5.081-54.598-10.019-83.109-10.022
			c-29.576-0.003-50.671,9.692-78.744,12.69c-45.448,4.853-100.382,3.927-145.981,0c-34.124-2.941-62.657-9.621-98.282-12.69
			c-116.54-10.043,5.361,37.561,32.124,47.464v163.244c0,5.707,4.625,10.335,10.333,10.335c5.71,0,10.337-4.628,10.337-10.335
			V68.791c16.869,12.524,26.939,28.405,51.827,21.196c28.529-8.266,43.274-17.729,72.527-0.568c3.379,1.98,6.092,4.195,8.417,6.529
			v92.308c0,5.707,4.628,10.332,10.335,10.332c5.706,0,10.34-4.625,10.34-10.332v-68.867c5.529,3.944,11.71,6.526,18.221,8.176
			v156.698c0,5.708,4.626,10.336,10.331,10.336c5.711,0,10.341-4.628,10.341-10.336V130.108c4.475,0.093,8.958-0.03,13.366-0.279
			c1.645-0.093,3.249-0.235,4.841-0.393v80.145c0,5.708,4.626,10.336,10.335,10.336c5.707,0,10.34-4.628,10.34-10.336v-83.86
			c18.524-4.577,35.445-11.175,58.439-11.119c14.917,0.035,27.28,1.575,38.47,4.289v63.228c0,5.708,4.628,10.335,10.333,10.335
			c5.709,0,10.34-4.627,10.34-10.335v-56.524c15.791,6.324,30.916,14.925,50.42,24.66c7.83,3.908,16.375,6.572,25.373,8.29v219.958
			c0,4.702,3.812,8.513,8.514,8.513c4.703,0,8.511-3.811,8.511-8.513V160.688c8.039,0.531,16.31,0.473,24.67-0.009v69.979
			c0,5.706,4.625,10.334,10.329,10.334c5.713,0,10.341-4.628,10.341-10.334v-71.943c23.479-3.021,46.698-8.392,66.533-12.758
			v168.706c0,5.708,4.627,10.335,10.333,10.335c5.711,0,10.337-4.626,10.337-10.335V140.927
			c16.669-4.938,33.282-12.012,49.932-18.274v65.602c0,5.707,4.629,10.332,10.339,10.332c5.704,0,10.335-4.625,10.335-10.332
			v-72.717c7.71-2.34,15.438-4.274,23.195-5.448c34.355-5.204,61.354,13.392,94.396,14.714c29.244,1.171,66.848-7.76,95.979-12.807
			c35.356-6.127,68.705-9.379,104.704-15.234c32.912-5.35,58.41-2.934,90.69,3.178c8.896,1.681,18.284,2.008,27.855,1.872v86.442
			c0,5.707,4.63,10.332,10.335,10.332c5.708,0,10.335-4.625,10.335-10.332v-87.136c13.599-0.534,27.135-0.767,39.783,1.645v171.728
			c0,5.707,4.624,10.336,10.333,10.336c5.702,0,10.338-4.629,10.338-10.336V110.012c6.728,3.526,13.085,7.849,19.453,12.214v102.409
			c0,5.708,4.624,10.336,10.335,10.336c5.705,0,10.335-4.627,10.335-10.336v-89.523c7.609,3.894,15.727,6.777,24.93,7.459
			c16.082,1.191,32.902-3.193,48.78-5c8.545-0.969,21.917-0.646,29.776-3.067c15.717-4.846,18.463-17.208,29.163-23.302
			c17.081-9.737,38.056-5.969,59.482-4.564v167.854c0,5.707,4.62,10.336,10.33,10.336c5.706,0,10.337-4.629,10.337-10.336V106.677
			c11.399-0.793,22.182-2.782,32.832-5.026v70.698c0,5.706,4.631,10.333,10.337,10.333c5.709,0,10.339-4.627,10.339-10.333V97.422
			c7.625-1.426,15.369-2.619,23.444-3.124c28.437-1.775,53.118-1.967,78.785-8.251c16.895-4.137,49.168-3.487,63.086-15.031
			C1744.41,32.107,1663.465,30.685,1639.236,28.256z"/>
		<path fill="#E6EFFA" d="M1735.34,57.152c-11.977-2.148-18.595-3.514-32.513,0.367c-12.594,3.513-27.167,6.043-40.769,5.069
			c-13.003-0.936-24.076-8.461-37.991-8.923c-17.471-0.582-32.259,8.735-50.353,8.925c-29.45,0.313-57.111-13.572-83.856,5.176
			c-10.813,7.576-20.878,17.444-35.5,14.021c-16.966-3.971-24.628-18.798-43.828-16.358c-20.886,2.651-23.707,20.608-38.945,28.789
			c-21.013,11.278-36.114-4.526-50.431-14.722c-16.04-11.427-32.638-2.941-50.695-4.148c-17.256-1.156-28.339-7.773-44.098-14.416
			c-17.791-7.5-34.949-9.215-54.722-7.261c-15.288,1.507-28.017,10.044-43.014,11.472c-14.26,1.359-28.123-1.034-40.192-5.48
			c-51.242-18.875-89.419,12.886-134.047,29.772c-6.738,2.547-15.302,3.464-21.885,5.72c-4.555,1.562-7.536,3.965-12.728,4.489
			c-33.273,3.367-53.132-16.609-80.877-31.506c-24.487-13.148-57.436-5.31-83.914-3.279c-24.32,1.87-52.468,3.271-74.74,13.734
			c-15.196,7.144-22.507,26.369-39.06,29.939c-19.294,4.155-33.282-8.3-49.155-15.332c-15.664-6.937-30.601-7.454-44.694,1.375
			c-13.242,8.296-20.384,14.291-38.629,9.843c-19.02-4.637-27.188-18.686-42.172-29.036c-16.003-11.055-38.215-18.101-57.899-14.064
			c-13.563,2.782-20.664,8.692-35.897,7.938c-13.844-0.686-24.359-1.236-35.708,4.848c-17.698,9.483-26.75,15.806-48.141,10.878
			c-20.846-4.802-32.025-17.336-48.281-28.806c-32.7-23.068-66.235-3.743-102.562-5.065c-15.255-0.555-20.84-10.477-33.189-16.224
			c-11.845-5.514-23.966-2.092-35.709-6.692c-12.762-4.999-22.191-12.32-32.133-18.556c-94.534-5.458,18.97,38.855,44.688,48.37
			v163.244c0,5.707,4.625,10.335,10.333,10.335c5.71,0,10.337-4.628,10.337-10.335V68.791
			c16.869,12.524,26.939,28.405,51.827,21.196c28.529-8.266,43.274-17.729,72.527-0.568c3.379,1.98,6.092,4.195,8.417,6.529v92.308
			c0,5.707,4.628,10.332,10.335,10.332c5.706,0,10.34-4.625,10.34-10.332v-68.867c5.529,3.944,11.71,6.526,18.221,8.176v156.698
			c0,5.708,4.626,10.336,10.331,10.336c5.711,0,10.341-4.628,10.341-10.336V130.108c4.475,0.093,8.958-0.03,13.366-0.279
			c1.645-0.093,3.249-0.235,4.841-0.393v80.145c0,5.708,4.626,10.336,10.335,10.336c5.707,0,10.34-4.628,10.34-10.336v-83.86
			c18.524-4.577,35.445-11.175,58.439-11.119c14.917,0.035,27.28,1.575,38.47,4.289v63.228c0,5.708,4.628,10.335,10.333,10.335
			c5.709,0,10.34-4.627,10.34-10.335v-56.524c15.791,6.324,30.916,14.925,50.42,24.66c7.83,3.908,16.375,6.572,25.373,8.29v219.958
			c0,4.702,3.812,8.513,8.514,8.513c4.703,0,8.511-3.811,8.511-8.513V160.688c8.039,0.531,16.31,0.473,24.67-0.009v69.979
			c0,5.706,4.625,10.334,10.329,10.334c5.713,0,10.341-4.628,10.341-10.334v-71.943c23.479-3.021,46.698-8.392,66.533-12.758
			v168.706c0,5.708,4.627,10.335,10.333,10.335c5.711,0,10.337-4.626,10.337-10.335V140.927
			c16.669-4.938,33.282-12.012,49.932-18.274v65.602c0,5.707,4.629,10.332,10.339,10.332c5.704,0,10.335-4.625,10.335-10.332
			v-72.717c7.71-2.34,15.438-4.274,23.195-5.448c34.355-5.204,61.354,13.392,94.396,14.714c29.244,1.171,66.848-7.76,95.979-12.807
			c35.356-6.127,68.705-9.379,104.704-15.234c32.912-5.35,58.41-2.934,90.69,3.178c8.896,1.681,18.284,2.008,27.855,1.872v86.442
			c0,5.707,4.63,10.332,10.335,10.332c5.708,0,10.335-4.625,10.335-10.332v-87.136c13.599-0.534,27.135-0.767,39.783,1.645v171.728
			c0,5.707,4.624,10.336,10.333,10.336c5.702,0,10.338-4.629,10.338-10.336V110.012c6.728,3.526,13.085,7.849,19.453,12.214v102.409
			c0,5.708,4.624,10.336,10.335,10.336c5.705,0,10.335-4.627,10.335-10.336v-89.523c7.609,3.894,15.727,6.777,24.93,7.459
			c16.082,1.191,32.902-3.193,48.78-5c8.545-0.969,21.917-0.646,29.776-3.067c15.717-4.846,18.463-17.208,29.163-23.302
			c17.081-9.737,38.056-5.969,59.482-4.564v167.854c0,5.707,4.62,10.336,10.33,10.336c5.706,0,10.337-4.629,10.337-10.336V106.677
			c11.399-0.793,22.182-2.782,32.832-5.026v70.698c0,5.706,4.631,10.333,10.337,10.333c5.709,0,10.339-4.627,10.339-10.333V97.422
			c7.625-1.426,15.369-2.619,23.444-3.124c28.437-1.775,53.118-1.967,78.785-8.251c16.895-4.137,49.168-3.487,63.086-15.031
			C1737.864,65.726,1737.215,61.153,1735.34,57.152z"/>
	</g>
</g>
</svg>
