<?xml version="1.0" encoding="utf-8"?>
<!-- Generator: Adobe Illustrator 16.0.0, SVG Export Plug-In . SVG Version: 6.00 Build 0)  -->
<!DOCTYPE svg PUBLIC "-//W3C//DTD SVG 1.1//EN" "http://www.w3.org/Graphics/SVG/1.1/DTD/svg11.dtd">
<svg version="1.1" xmlns="http://www.w3.org/2000/svg" xmlns:xlink="http://www.w3.org/1999/xlink" x="0px" y="0px"
	 width="767.043px" height="273.749px" viewBox="0 0 767.043 273.749" enable-background="new 0 0 767.043 273.749"
	 xml:space="preserve">
<g>
	<g>
		<path fill="#FFFFFF" d="M741.393,133.234c1.835-1.932,3.704-3.785,5.626-5.557c4.953-7.23,9.96-14.476,14.12-22.547
			c5.391-10.461,7.972-22.332,3.922-33.826c-6.483-18.432-20.65-11.044-33.904-7.04c-1.703,1.145-3.532,2.158-5.644,2.838
			c-13.604,4.342-23.909-6.146-37.235-4.115c-12.172,1.851-21.691,12.14-33.936,14.587c-20.148,4.012-34.627-7.587-53.002-10.166
			c-22.371-3.155-37.013,4.478-57.651,7.409c-14.908,2.117-34.081,3.926-49.217,1.517c-16.795-2.671-31.475-12.975-47.444-17.808
			c-19.159-5.806-22.705-6.055-32.522-22.268c-3.529-5.818-8.367-10.545-12.29-16.294c-2.716-3.987-6.951-15.692-10.39-17.594
			c-27.317-15.11-40.957,46.479-54.926,58.42c-13.351,11.41-27.835,3.561-41.643,13.615c-15.604,11.378-14.144,16.991-36.788,16.78
			c-19.339-0.178-33.954-10.713-52.949-13.355c-18.945-2.634-30.362,6.607-47.64,7.418C124.988,86.8,99.918,73.772,68.248,70.403
			c-6.148-0.655-10.651-1.643-14.354-2.979c-11.558,0-23.017,0.868-33.521,4.262C6.727,76.098-3.253,94.081,0.986,108.916
			c2.684,9.389,13.041,15.9,23.687,21.9c6.377,1.821,12.652,4.2,18.735,7.086c11.582-0.605,20.94,3.048,30.885,8.76
			c19.238,11.047,32.066,3.638,51.444-1.208c12.127-3.029,28.93-2.525,39.936,3.038c8.435,4.267,16.269,8.899,26.418,7.293
			c8.266-1.304,16.125-5.087,24.635-6.398c11.831-1.828,19.152,1.768,30.063,4.371c10.275,2.459,15.969,0.142,25.572-2.124
			c9.24-2.179,22.032-0.271,31.141,0.578c3.918,0.364,8.27,1.194,11.992,0.027c4.44-1.393,4.856-3.113,9.972-3.609
			c9.071-0.875,18.866,2.595,26.315,6.642c7.386,4.008,14.445,8.626,20.822,14.665c6.139,5.811,7.354,14.601,15.043,18.762
			c11.473,6.197,24.625,1.341,32.302-8.389c5.351-6.794,6.885-13.599,14.888-17.751c6.942-3.603,15.863-6.342,23.726-7.665
			c11.141-1.865,16.419-0.478,25.601-6.465c16.437-10.716,39.623-10.617,59.241-10.53c5.704,0.027,13.987-0.838,18.736,2.971
			c3.205,2.567,5.894,8.629,8.809,11.879c6.493,7.222,10.921,12.652,15.691,20.995c7.994,14.02,19.799,32.666,38.309,25.638
			c15.419-5.854,21.273-25.937,28.114-39.737c4.459-8.993,4.497-8.854,15.705-8.869c6.999-0.003,16.338,2.831,22.114-1.539
			c6.844-5.17,4.601-9.997,14.295-11.338c8.226-1.136,16.991,5.667,25.126,2.913c3.554-1.201,6.422-5.543,10.017-7.198
			C740.704,133.436,741.027,133.375,741.393,133.234z"/>
		<path fill="#E6EFFA" d="M766.588,77.732c-8.276,10.795-15.785,21.018-22.258,26.828c-13.01,11.674-29.54,13.015-45.775,13.791
			c-17.358,0.823-31.77,9.327-49.559,5.766c-23.578-4.717-37.244-19.47-62.863-19.122c-21.111,0.288-33.368,8.177-54.543,6.195
			c-34.394-3.227-74.697-8.144-109.289-6.195c-21.676,1.223-28.899,17.608-49.982,19.122c-24.559,1.763-45.465-17.968-72.2-15.307
			c-20.997,2.094-36.36,17.298-59.046,19.074c-19.881,1.553-33.438-9.961-51.634-12.972c-19.275-3.186-39.938,3.097-59.815,1.104
			c-19.69-1.978-32.704-13.094-51.088-16.742c-20.174-4.01-42.674,3.711-62.906,0.039c-4.95-0.897-9.758-2.979-14.462-5.799
			c-1.392,5.071-1.604,10.407-0.181,15.402c2.684,9.389,13.041,15.9,23.687,21.9c2.276,0.652,4.527,1.456,6.778,2.249v118.017
			c0,4.13,3.346,7.481,7.478,7.481c4.128,0,7.476-3.351,7.476-7.481V137.882c10.22,0.115,18.821,3.57,27.888,8.78
			c6.788,3.898,12.765,5.466,18.53,5.693v113.914c0,4.131,3.344,7.48,7.475,7.48c4.129,0,7.473-3.349,7.473-7.48V150.436
			c5.572-1.411,11.39-3.336,17.967-4.982c1.52-0.377,3.119-0.702,4.76-0.971v48.909c0,4.13,3.349,7.48,7.48,7.48
			c4.13,0,7.471-3.351,7.471-7.48v-49.659c7.327,0.39,14.545,1.892,20.225,4.759c0.106,0.06,0.223,0.114,0.332,0.172v67.656
			c0,4.13,3.349,7.479,7.475,7.479c4.135,0,7.479-3.349,7.479-7.479v-61.174c3.472,0.909,7.119,1.272,11.133,0.639
			c8.266-1.304,16.125-5.087,24.635-6.398c11.831-1.828,19.152,1.768,30.063,4.371c10.275,2.459,15.969,0.142,25.572-2.124
			c9.24-2.179,22.032-0.271,31.141,0.578c3.918,0.364,8.27,1.194,11.992,0.027c4.44-1.393,4.856-3.113,9.972-3.609
			c9.071-0.875,18.866,2.595,26.315,6.642c7.386,4.008,14.445,8.626,20.822,14.665c6.139,5.811,7.354,14.601,15.043,18.762
			c11.473,6.197,24.625,1.341,32.302-8.389c5.351-6.794,6.885-13.599,14.888-17.751c6.942-3.603,15.863-6.342,23.726-7.665
			c11.141-1.865,16.419-0.478,25.601-6.465c16.437-10.716,39.623-10.617,59.241-10.53c5.704,0.027,13.987-0.838,18.736,2.971
			c3.205,2.567,5.894,8.629,8.809,11.879c6.493,7.222,10.921,12.652,15.691,20.995c7.994,14.02,19.799,32.666,38.309,25.638
			c15.419-5.854,21.273-25.937,28.114-39.737c3.832-7.726,4.422-8.707,11.604-8.844v115.468c0,4.131,3.346,7.48,7.479,7.48
			c4.123,0,7.472-3.349,7.472-7.48V151.598c4.168,0.233,8.215-0.054,11.266-2.36c4.384-3.308,5.052-6.477,7.503-8.678v48.759
			c0,4.131,3.345,7.48,7.476,7.48c4.128,0,7.477-3.349,7.477-7.48v-50.587c5.702,1.471,11.479,3.938,16.966,2.08
			c3.554-1.201,6.422-5.543,10.017-7.198c0.375-0.173,0.691-0.237,1.049-0.373v50.257c0,4.129,3.341,7.479,7.472,7.479
			c4.129,0,7.479-3.35,7.479-7.479v-69.932c1.678-2.738,3.316-5.52,4.819-8.436C765.527,96.612,767.98,87.161,766.588,77.732z"/>
	</g>
</g>
</svg>
