<?xml version="1.0" encoding="utf-8"?>
<!-- Generator: Adobe Illustrator 16.0.0, SVG Export Plug-In . SVG Version: 6.00 Build 0)  -->
<!DOCTYPE svg PUBLIC "-//W3C//DTD SVG 1.1//EN" "http://www.w3.org/Graphics/SVG/1.1/DTD/svg11.dtd">
<svg version="1.1" xmlns="http://www.w3.org/2000/svg" xmlns:xlink="http://www.w3.org/1999/xlink" x="0px" y="0px"
	 width="649.481px" height="256.678px" viewBox="0 0 649.481 256.678" enable-background="new 0 0 649.481 256.678"
	 xml:space="preserve">
<g>
	<path fill="#FFFFFF" d="M123.15,90.446c59.783-8.995,138.83,8.724,230.723-72.432c26.961-23.814,92.5-39.572,174.645,57.435
		c46.051,54.381,83.977,40.27,106.242,57.71c22.262,17.441,24.314,69.754-29.701,54.998
		c-54.01-14.756-125.655-50.973-184.396-18.781c-58.746,32.194-149.966,83.164-187.521,56.339
		c-37.555-26.825-50.934-67.581-109.99-41.582c-96.918,42.667-152.245,9-107.313-36.952C33.276,129.348,65.008,99.195,123.15,90.446
		z"/>
	<path fill="#E6EFFA" d="M608.733,169.527c-19.143-5.229-44.198-29.402-66.41-36.017c-40.463-12.061-83.766-19.795-121.692,0.989
		c-33.85,18.549-70.754,58.428-109.686,70.972c-28.641,9.226-61.92-3.265-77.835-14.633
		c-37.556-26.827-44.864-53.283-103.923-27.282c-17.827,7.847-40.309-1.191-54.951,1.892c-13.743,2.892-42.37,16.503-52.694,15.878
		c-14.082-0.854-18.446-12.739-14.64-23.271c-26.725,40.017,27.149,65.291,116.217,26.078c59.056-26,72.436,14.757,109.991,41.582
		c37.559,26.825,128.775-24.145,187.521-56.339c58.742-32.191,130.388,4.025,184.402,18.781
		c43.963,12.013,50.783-20.416,39.783-42.299C649.477,162.796,629.883,175.308,608.733,169.527z"/>
	<path fill="#CBE0FA" d="M1.268,184.554c0,0,0.822,17.229,7.615,18.989c6.786,1.76,9.306-3.774,15.088,2.515
		c5.785,6.287,3.268,16.85,9.557,14.336c6.291-2.515,0.506-15.342,7.547-13.079c7.04,2.264,2.012,9.558,8.046,6.54
		c6.036-3.017,2.266-10.563,11.825-7.545c9.556,3.019,16.601,7.042,30.684-3.646c14.083-10.69,39.483-23.768,55.332-15.218
		c15.84,8.552,22.383-1.76,25.904-2.891c3.518-1.133,12.324,5.408,17.101,13.203c4.78,7.798,19.373,33.871,39.823,36.89
		c20.457,3.017,22.469,3.353,21.799,9.388c-0.674,6.035,8.135,19.789,19.996,8.048c11.857-11.736-2.895-19.448,20.243-16.431
		c23.136,3.018,19.782-3.353,29.175-11.738c9.393-8.381,42.25-22.803,62.04-21.797c19.79,1.005,23.907-23.807,35.763-29.845
		c11.857-6.036,62.957-20.455,92.065,0c29.111,20.457,34.227,2.598,49.571,7.376c15.342,4.778,8.043,19.367,21.879,19.616
		c13.834,0.253,20.123-9.805,27.671-3.771c7.542,6.036,1.253,12.035,7.292,13.687c6.039,1.656,1.412-10.921,4.979-13.687
		c3.569-2.765,1.81,4.527,6.841,5.533c5.03,1.006,1.762-5.533,4.275-7.795c2.512-2.266,9.865-7.06,12.607-14.317
		c2.746-7.259-14.372,6.811-38.01-1.508c-23.643-8.319-17.53-6.687-40.583-7.879c-23.048-1.196-34.869-24.083-69.583-16.538
		c-34.702,7.546-39.99-2.517-56.838-2.765c-16.852-0.254-24.146,7.92-30.683,19.303c-6.542,11.38-16.517,7.777-27.077,10.29
		c-10.568,2.517-13.246,14.087-21.128,16.601c-7.884,2.515-24.143,16.766-42.925,18.946c-18.783,2.182-10.227,6.37-20.626,10.564
		c-10.396,4.191-19.95-2.345-24.478-3.352c-4.53-1.007-28.342,7.375-35.381,0c-7.041-7.375-23.14-7.885-25.318-22.636
		c-2.178-14.754-20.961-22.303-40.58-24.147c-19.611-1.841-10.225-0.841-25.484-4.696c-15.255-3.854-18.941,5.368-27.327,8.216
		c-8.385,2.851-28.675,19.952-47.284,15.425c-18.611-4.526-13.915,2.685-20.959,2.182c-7.043-0.503-14.799,10.143-20.457,4.862
		c-5.66-5.281-2.641-8.804-11.441-7.42C11.019,195.745,5.102,190.212,1.268,184.554z"/>
</g>
</svg>
