<?xml version="1.0" encoding="utf-8"?>
<!-- Generator: Adobe Illustrator 16.0.0, SVG Export Plug-In . SVG Version: 6.00 Build 0)  -->
<!DOCTYPE svg PUBLIC "-//W3C//DTD SVG 1.1//EN" "http://www.w3.org/Graphics/SVG/1.1/DTD/svg11.dtd">
<svg version="1.1" xmlns="http://www.w3.org/2000/svg" xmlns:xlink="http://www.w3.org/1999/xlink" x="0px" y="0px"
	 width="775.827px" height="146.72px" viewBox="0 0 775.827 146.72" enable-background="new 0 0 775.827 146.72"
	 xml:space="preserve">
<g>
	<g>
		<path fill="#FFFFFF" d="M678.624,104.405c21.579-2.676,43.155-6.778,64.517-12.197c15.103-9.531,28.163-21.149,32.687-33.965
			l-0.016-18.912c-0.418-1.156-0.908-2.314-1.495-3.48c-12.656-15.35-36.479-22.903-58.425-19.286
			c-3.434,0.567-6.748,0.755-9.924,0.624c-11.696,1.466-23.646,0.562-34.812-3.943c-12.985-6.023-22.665-9.828-25.231-10.43
			c-7.912-1.866-20.856-3.7-29.777-1.988c-11.104,2.128-16.696,11.697-26.743,15.388c-13.69,5.026-24.269-1.024-37.054-6.059
			C539.032,4.914,523.088-0.922,507.16,0.122C484.2,1.637,462.561,6.4,441.746,12.997c-13.756,4.358-27.149,11.522-42.345,13.253
			c-11.96,1.36-28.771,0.541-40.712-0.703c-19.324-2.021-26.634-11.757-42.135-18.339c-9.943-4.226-28.848-4.328-41.18-1.401
			c-14.522,3.456-20.126,10.667-29.896,18.488c-11.727,9.402-15.829,10.521-33.443,10.369c-17.125-0.147-29.456-8.073-47.622-8.467
			c-8.454-0.184-19.821-1-27.184,2.131c-5.206,2.221-7.837,6.525-12.099,9.52c-5.465,3.847-14.253,9.917-20.601,12.911
			c-10.152,4.789-28.504,2.217-40.938,2.217c-14.523,0-27.813,0.146-41.369,2.12c-3.666,2.458-7.74,4.396-12.174,5.627
			c-7.232,2.007-9.737,7.206-9.874,14.545c-0.15,9.189-1.479,15.537,6.394,21.158c0.567,0.406,1.07,0.87,1.614,1.295
			c2.646,0.829,5.083,1.914,7.348,3.184c5.451,1.169,10.316,2.359,13.575,3.945c8.96,4.362,10.673,4.978,13.361,14.368
			c2.488,8.678,1.386,10.389,9.896,14.004c12.621,5.359,34.808,6.141,48.75,4.121c8.77-1.269,15.273-2.856,24.271-2.889
			c15.826-0.053,25.015,4.819,39.439,9.833c17.442,6.076,30.92-0.168,46.132-8.285c13.181-7.031,22.817-17.405,37.819-20.137
			c19.21-3.504,36.069-3.858,53.185,6.932c13.746,8.663,26.464,17.164,43.667,19.691c31.598,4.642,48.281-15.37,74.237-28.687
			c12.96-6.651,26.438-7.108,39.146,2.092c10.838,7.849,15.627,20.589,29.184,26.044c14.903,6.003,20.112-5.134,32.81-8.452
			c6.182-1.62,12.867-1.536,19.09-0.347c8.647,1.654,15.097,8.93,24.046,8.668c8.005-0.24,15.319-6.748,22.037-10.167
			c6.701-3.403,12.771-4.86,19.828-7.789c10.706-4.442,21.589-14.195,33.391-16.528
			C648.232,105.571,662.538,104.809,678.624,104.405z"/>
		<path fill="#E6EFFA" d="M678.624,104.405c21.579-2.676,43.158-6.778,64.517-12.197c15.107-9.531,28.163-21.149,32.687-33.966
			l-0.01-18.907c-0.463-1.278-1.037-2.567-1.715-3.857c-1.426-1.692-2.938-3.325-4.626-4.819
			c-20.901,12.607-26.812,37.377-55.324,37.978c-21.177,0.449-42.484-3.187-63.937-3.37c-16.299-0.147-39.385-3.704-54.173,1.97
			c-17.744,6.812-25.39,22.8-45.424,24.996c-23.759,2.604-36.201-6.99-55.638-15.542c-19.633-8.641-50.581-5.336-72.587-3.03
			c-25.229,2.645-33.878,18.543-60.387,18.579c-26.712,0.031-48.777-9.462-74.407-11.8c-51.146-4.672-90.82,15.539-136.411,27.096
			c-21.339,5.415-49.472,4.012-67.362-8.607c-9.621-6.784-11.22-10.24-23.768-11.75c-9.805-1.174-20.943,0.995-30.472-1.596
			c-8.01-2.185-17.887-9-28.474-15.951c-0.46,2.465-0.918,4.721-0.937,5.634c-0.15,9.189-1.479,15.537,6.394,21.158
			c0.567,0.406,1.07,0.87,1.614,1.295c2.646,0.829,5.083,1.914,7.348,3.184c5.451,1.169,10.316,2.359,13.575,3.945
			c8.96,4.362,10.673,4.978,13.361,14.368c2.488,8.678,1.386,10.389,9.896,14.004c12.621,5.359,34.808,6.141,48.75,4.121
			c8.77-1.269,15.273-2.856,24.271-2.889c15.826-0.053,25.015,4.819,39.439,9.833c17.442,6.076,30.92-0.168,46.132-8.285
			c13.181-7.031,22.817-17.405,37.819-20.137c19.21-3.504,36.069-3.858,53.185,6.932c13.746,8.663,26.464,17.164,43.667,19.691
			c31.598,4.642,48.281-15.37,74.237-28.687c12.96-6.651,26.438-7.108,39.146,2.092c10.838,7.849,15.627,20.589,29.184,26.044
			c14.903,6.003,20.112-5.134,32.81-8.452c6.182-1.62,12.867-1.536,19.09-0.347c8.647,1.654,15.097,8.93,24.046,8.668
			c8.005-0.24,15.319-6.748,22.037-10.167c6.701-3.403,12.771-4.86,19.828-7.789c10.706-4.442,21.589-14.195,33.391-16.528
			C648.232,105.571,662.538,104.809,678.624,104.405z"/>
	</g>
</g>
</svg>
