<svg viewBox="0 0 4650 735" xmlns="http://www.w3.org/2000/svg" fill-rule="evenodd" clip-rule="evenodd" stroke-linejoin="round" stroke-miterlimit="2">
  <path d="M1436.62 603.303l56.39-142.598h162.82l-77.27-216.316L1675.2 0 1952 734.933h-204.13l-47.3-131.63h-263.95z" fill="#cb5454" fill-rule="nonzero"/>
  <path d="M1262.47 734.935L1558.79.001l-196.45.001-202.7 474.931L1015.5.003H864.499l-154.768 474.93-109.146-216.416-98.773 304.302 100.284 172.116h193.331l139.857-425.91 133.346 425.91h193.84z" fill="#355454" fill-rule="nonzero"/>
  <path d="M186.476 482.642h121.003c36.654 0 69.293-4.09 97.917-12.272l31.293-96.408 87.459-269.446c-6.664-10.563-14.272-20.55-22.824-29.96C456.419 24.851 390.719 0 304.222 0H0v734.933h186.476v-252.29zM346.642 169.08c17.54 17.653 26.309 41.275 26.309 70.87 0 29.823-7.713 53.474-23.138 70.957-16.91 19.425-48.047 29.137-93.409 29.137h-69.928V142.598h70.442c42.277 0 72.185 8.827 89.724 26.481z" fill="#cb5454" fill-rule="nonzero"/>
  <path
    d="M2413.182.06v271.972c-34.4-38.7-69.874-74.174-116.099-84.924-150.498-35.475-244.022 108.574-244.022 270.897 0 178.449 92.449 291.322 226.822 270.898 53.75-8.6 95.674-43 133.3-81.7v18.275l3.224 63.425h58.05V3.285L2413.181.06zm-134.374 674.018c-96.749 8.6-162.323-73.1-162.323-216.073 0-135.448 72.024-238.647 178.448-216.073 45.15 9.675 82.774 46.225 118.25 86v264.447c-46.225 46.224-86 75.25-134.375 81.7zM3013.978 189.258L2848.43 664.403l-167.698-475.145-60.2 3.225 192.423 536.42h68.8l192.423-536.42-60.2-3.225zM3409.61 735.353c96.75 0 174.149-54.825 212.849-140.824l-54.825-17.2c-34.4 67.724-90.3 103.2-159.098 103.2-101.05 0-169.849-81.7-171.999-196.724v-9.675l400.971 1.075c1.075-11.825 1.075-22.575 1.075-40.85 0-146.198-103.199-249.397-228.972-249.397-133.3 0-232.198 117.174-232.198 275.197 0 159.099 93.524 275.198 232.198 275.198zM3237.613 420.38c1.075-94.6 77.4-181.674 171.999-181.674 90.299 0 168.773 74.175 168.773 181.674h-340.772zM4024.505 184.958c-60.2 8.6-116.1 48.374-151.574 96.749l-1.075-94.6-60.2 4.3v537.496h61.275V346.206c30.1-48.374 83.85-95.674 136.524-104.274 91.374-13.975 159.098 45.15 159.098 147.274v339.697h61.275V374.156c0-120.399-86-205.323-205.323-189.198zM4579.867 668.703c-70.95-1.075-82.774-44.074-82.774-109.649l1.075-290.247h104.274v-59.124h-104.274V40.909l-61.275 4.3v164.474h-67.724v59.124h67.724l-1.075 302.072c0 107.5 41.925 158.024 140.824 158.024h37.625v-60.2h-34.4z"
    fill="#355454" fill-rule="nonzero"/>
</svg>
