<?xml version="1.0" encoding="UTF-8" standalone="no"?>
<!DOCTYPE svg PUBLIC "-//W3C//DTD SVG 1.1//EN" "http://www.w3.org/Graphics/SVG/1.1/DTD/svg11.dtd">
<svg width="100%" height="100%" viewBox="0 0 3300 735" version="1.1" xmlns="http://www.w3.org/2000/svg" xmlns:xlink="http://www.w3.org/1999/xlink" xml:space="preserve" xmlns:serif="http://www.serif.com/" style="fill-rule:evenodd;clip-rule:evenodd;stroke-linejoin:round;stroke-miterlimit:2;">
    <g transform="matrix(0.684578,0,0,0.684578,2.61146e-06,231.813)">
        <g transform="matrix(1.26775,0,0,1.26775,1.02138e-06,-196.779)">
            <path d="M1436.62,603.306L1493.01,460.708L1655.83,460.708L1578.56,244.392L1675.2,0.003L1952,734.936L1747.87,734.936L1700.57,603.306L1436.62,603.306Z" style="fill:rgb(203,84,84);fill-rule:nonzero;"/>
        </g>
        <g transform="matrix(1.26775,0,0,1.26775,1.02138e-06,-196.779)">
            <path d="M1262.47,734.938L1558.79,0.004L1362.34,0.005L1159.64,474.936L1015.5,0.006L864.499,0.006L709.731,474.936L600.585,258.52L501.812,562.822L602.096,734.938L795.427,734.938L935.284,309.027L1068.63,734.938L1262.47,734.938Z" style="fill:rgb(53,84,84);fill-rule:nonzero;"/>
        </g>
        <g transform="matrix(1.26775,0,0,1.26775,1.02138e-06,-196.779)">
            <path d="M186.476,482.645L307.479,482.645C344.133,482.645 376.772,478.555 405.396,470.373L436.689,373.965L524.148,104.519C517.484,93.956 509.876,83.969 501.324,74.559C456.419,24.854 390.719,0.003 304.222,0.003L-0,0.003L-0,734.936L186.476,734.936L186.476,482.645ZM346.642,169.082C364.182,186.735 372.951,210.357 372.951,239.952C372.951,269.775 365.238,293.426 349.813,310.909C332.903,330.334 301.766,340.046 256.404,340.046L186.476,340.046L186.476,142.601L256.918,142.601C299.195,142.601 329.103,151.428 346.642,169.082Z" style="fill:rgb(203,84,84);fill-rule:nonzero;"/>
        </g>
        <g transform="matrix(2.54966,0,0,2.54966,-3098.31,-73.5635)">
            <g transform="matrix(359,0,0,359,2215.87,315.087)">
                <path d="M0.391,-0.678L0.391,-0.425C0.359,-0.461 0.326,-0.494 0.283,-0.504C0.143,-0.537 0.056,-0.403 0.056,-0.252C0.056,-0.086 0.142,0.019 0.267,-0C0.317,-0.008 0.356,-0.04 0.391,-0.076L0.391,-0.059L0.394,-0L0.448,-0L0.448,-0.675L0.391,-0.678ZM0.266,-0.051C0.176,-0.043 0.115,-0.119 0.115,-0.252C0.115,-0.378 0.182,-0.474 0.281,-0.453C0.323,-0.444 0.358,-0.41 0.391,-0.373L0.391,-0.127C0.348,-0.084 0.311,-0.057 0.266,-0.051Z" style="fill:rgb(53,84,84);fill-rule:nonzero;"/>
            </g>
            <g transform="matrix(359,0,0,359,2412.92,315.087)">
                <path d="M0.401,-0.502L0.247,-0.06L0.091,-0.502L0.035,-0.499L0.214,-0L0.278,-0L0.457,-0.499L0.401,-0.502Z" style="fill:rgb(53,84,84);fill-rule:nonzero;"/>
            </g>
            <g transform="matrix(359,0,0,359,2589.56,315.087)">
                <path d="M0.277,0.006C0.367,0.006 0.439,-0.045 0.475,-0.125L0.424,-0.141C0.392,-0.078 0.34,-0.045 0.276,-0.045C0.182,-0.045 0.118,-0.121 0.116,-0.228L0.116,-0.237L0.489,-0.236C0.49,-0.247 0.49,-0.257 0.49,-0.274C0.49,-0.41 0.394,-0.506 0.277,-0.506C0.153,-0.506 0.061,-0.397 0.061,-0.25C0.061,-0.102 0.148,0.006 0.277,0.006ZM0.117,-0.287C0.118,-0.375 0.189,-0.456 0.277,-0.456C0.361,-0.456 0.434,-0.387 0.434,-0.287L0.117,-0.287Z" style="fill:rgb(53,84,84);fill-rule:nonzero;"/>
            </g>
            <g transform="matrix(359,0,0,359,2787.01,315.087)">
                <path d="M0.299,-0.506C0.243,-0.498 0.191,-0.461 0.158,-0.416L0.157,-0.504L0.101,-0.5L0.101,-0L0.158,-0L0.158,-0.356C0.186,-0.401 0.236,-0.445 0.285,-0.453C0.37,-0.466 0.433,-0.411 0.433,-0.316L0.433,-0L0.49,-0L0.49,-0.33C0.49,-0.442 0.41,-0.521 0.299,-0.506Z" style="fill:rgb(53,84,84);fill-rule:nonzero;"/>
            </g>
            <g transform="matrix(359,0,0,359,2989.35,315.087)">
                <path d="M0.252,-0.056C0.186,-0.057 0.175,-0.097 0.175,-0.158L0.176,-0.428L0.273,-0.428L0.273,-0.483L0.176,-0.483L0.176,-0.64L0.119,-0.636L0.119,-0.483L0.056,-0.483L0.056,-0.428L0.119,-0.428L0.118,-0.147C0.118,-0.047 0.157,-0 0.249,-0L0.284,-0L0.284,-0.056L0.252,-0.056Z" style="fill:rgb(53,84,84);fill-rule:nonzero;"/>
            </g>
        </g>
    </g>
    <g id="iconfinder_hat_848740" transform="matrix(0.588559,0.347877,-0.347877,0.588559,894.171,125.786)">
        <g transform="matrix(1,0,0,1,-256,-256)">
            <clipPath id="_clip1">
                <rect x="0" y="0" width="512" height="512"/>
            </clipPath>
            <g clip-path="url(#_clip1)">
                <g>
                    <path d="M38.599,388.643C38.599,388.643 7.042,156.378 140.735,145.995C140.735,145.995 301.404,-29.31 400.717,52.949C491.027,127.75 424.434,186.132 424.434,186.132C424.434,186.132 428.268,140.852 408.014,120.452C384.746,97.017 348.141,89.457 335.95,131.399C318.29,192.149 530.252,260.933 471.87,386.819C379.366,386.819 351.912,386.815 38.599,388.643Z" style="fill:rgb(203,84,84);fill-rule:nonzero;"/>
                    <circle cx="433.556" cy="171.536" r="38.313" style="fill:white;"/>
                    <path d="M489.534,434.518C489.534,459.6 469.798,464.186 444.717,464.186L68.581,464.186C43.499,464.186 22.57,459.6 22.57,434.518C22.57,409.438 17.762,367.7 66.382,384.796C66.382,384.796 167.896,367.202 259.793,367.682C353.827,363.408 444.655,384.804 444.655,384.804C492.205,368.775 489.534,409.438 489.534,434.518Z" style="fill:white;fill-rule:nonzero;"/>
                    <path d="M338.976,30.985C360.753,30.987 381.847,37.318 400.717,52.948C439.013,84.668 449.089,113.433 447.998,136.048C461.997,141.751 471.869,155.487 471.869,171.535C471.869,192.695 454.716,209.848 433.556,209.848C412.396,209.848 395.243,192.695 395.243,171.535C395.243,155.89 404.625,142.445 418.065,136.494C415.655,130.454 412.399,124.869 408.013,120.451C396.682,109.038 382.19,101.391 368.893,101.392C354.885,101.393 342.203,109.882 335.949,131.398C318.472,191.516 525.847,259.501 473.595,382.902C490.93,389.925 489.533,416.839 489.533,435.016C489.533,460.098 469.2,480.998 444.119,480.998L67.984,480.998C42.902,480.998 22.57,460.098 22.57,435.016C22.57,416.598 19.977,388.664 37.854,382.186C33.952,344.581 20.36,155.351 140.735,146.001C140.735,146.002 246.139,30.977 338.976,30.985M338.965,9C295.463,9 245.848,29.649 191.492,70.827C162.589,92.722 140.28,114.35 130.138,124.715C101.008,128.93 76.683,142.493 57.733,165.221C34.082,193.593 19.61,235.57 14.721,290.044C11.802,322.568 12.999,352.773 14.381,371.433C9.171,376.955 4.62,384.842 2.175,396.128C-0.245,407.302 -0.071,419.341 0.07,429.018C0.101,431.144 0.13,433.463 0.13,435.299C0.13,473.01 30.569,504 67.984,504L444.12,504C481.534,504 511.974,473.008 511.974,435.298C511.974,434.104 511.98,432.713 511.987,431.451C512.036,421.699 512.097,409.485 509.584,398.04C507.49,388.51 503.974,381.281 499.864,375.859C509.644,341.478 503.863,307.135 482.595,273.585C472.796,258.129 460.491,243.916 447.357,230.718C474.23,224.452 494.309,200.295 494.309,171.541C494.309,152.005 485.104,134.159 469.971,122.88C468.666,111.037 465.029,99.246 459.096,87.676C449.924,69.787 435.098,52.516 415.031,35.894C393.307,17.9 367.72,9 338.978,9L338.965,9ZM373.413,162.95C370.67,160.102 368.178,157.333 365.994,154.655C359.793,147.048 356.615,140.696 357.497,137.663C361.517,123.833 366.878,123.833 368.895,123.832C374.162,123.832 381.03,126.945 387.401,132.045C379.979,140.725 375.061,151.421 373.413,162.95Z" style="fill:none;fill-rule:nonzero;"/>
                </g>
            </g>
        </g>
    </g>
</svg>
