<svg viewBox="0 0 3800 735" xmlns="http://www.w3.org/2000/svg" fill-rule="evenodd" clip-rule="evenodd" stroke-linejoin="round" stroke-miterlimit="2">
  <path d="M186.476 482.642h121.003c36.654 0 69.293-4.09 97.917-12.272l31.293-96.408 87.459-269.446c-6.664-10.563-14.272-20.55-22.824-29.96C456.419 24.851 390.719 0 304.222 0H0v734.933h186.476v-252.29zM346.642 169.08c17.54 17.653 26.309 41.275 26.309 70.87 0 29.823-7.713 53.474-23.138 70.957-16.91 19.425-48.047 29.137-93.409 29.137h-69.928V142.598h70.442c42.277 0 72.185 8.827 89.724 26.481z" fill="#cb5454" fill-rule="nonzero"/>
  <path d="M1262.47 734.935L1558.79.001l-196.45.001-202.7 474.931L1015.5.003H864.499l-154.768 474.93-109.146-216.416-98.773 304.302 100.284 172.116h193.331l139.857-425.91 133.346 425.91h193.84z" fill="#355454" fill-rule="nonzero"/>
  <path d="M1436.62 603.303l56.39-142.598h162.82l-77.27-216.316L1675.2 0 1952 734.933h-204.13l-47.3-131.63h-263.95z" fill="#cb5454" fill-rule="nonzero"/>
  <path d="M2294.847 241.36V424.03c-23.104-25.993-46.93-49.819-77.977-57.04-101.081-23.825-163.896 72.924-163.896 181.947 0 119.854 62.093 195.665 152.344 181.947 36.1-5.776 64.259-28.88 89.53-54.873v12.274l2.165 42.599h38.989V243.526l-41.155-2.166zm-90.251 452.7c-64.981 5.776-109.024-49.096-109.024-145.124 0-90.973 48.375-160.286 119.854-145.124 30.325 6.498 55.595 31.047 79.421 57.761v177.615c-31.046 31.046-57.76 50.54-90.251 54.872zM2698.368 368.434l-111.19 319.128-112.633-319.128-40.432 2.166 129.24 360.283h46.208l129.24-360.283-40.433-2.166zM2964.092 735.215c64.981 0 116.966-36.823 142.958-94.583l-36.822-11.552c-23.105 45.486-60.65 69.312-106.858 69.312-67.869 0-114.077-54.872-115.521-132.127v-6.498l269.31.722c.721-7.943.721-15.163.721-27.437 0-98.193-69.313-167.506-153.788-167.506-89.53 0-155.954 78.699-155.954 184.834 0 106.858 62.815 184.835 155.954 184.835zm-115.521-211.549c.722-63.537 51.984-122.02 115.521-122.02 60.649 0 113.356 49.819 113.356 122.02H2848.57zM3377.082 365.546c-40.433 5.776-77.977 32.49-101.804 64.98l-.722-63.536-40.432 2.888v361.005h41.154V473.847c20.217-32.49 56.317-64.259 91.696-70.035 61.37-9.386 106.857 30.325 106.857 98.916v228.155h41.155V492.62c0-80.866-57.761-137.904-137.904-127.074zM3750.088 690.45c-47.653-.722-55.595-29.602-55.595-73.645l.722-194.942h70.035v-39.71h-70.035V268.795l-41.155 2.889v110.467h-45.486v39.71h45.486l-.722 202.885c0 72.201 28.159 106.136 94.584 106.136h25.27V690.45h-23.104z"
        fill="#355454" fill-rule="nonzero"/>
</svg>
